<svg width="14" height="16" viewBox="0 0 14 16" fill="none" xmlns="http://www.w3.org/2000/svg">
<path d="M4.33323 1.33329L3.8619 0.861958L4.33323 0.390625L4.80456 0.861958L4.33323 1.33329ZM4.9999 11.3333C4.9999 11.5101 4.92966 11.6797 4.80464 11.8047C4.67961 11.9297 4.51004 12 4.33323 12C4.15642 12 3.98685 11.9297 3.86183 11.8047C3.7368 11.6797 3.66656 11.5101 3.66656 11.3333H4.9999ZM0.528564 4.19529L3.8619 0.861958L4.80456 1.80463L1.47123 5.13796L0.528564 4.19529ZM4.80456 0.861958L8.1379 4.19529L7.19523 5.13796L3.8619 1.80463L4.80456 0.861958ZM4.9999 1.33329V11.3333H3.66656V1.33329H4.9999ZM9.66656 14.6666L9.19523 15.138L9.66656 15.6093L10.1379 15.138L9.66656 14.6666ZM10.3332 4.66663C10.3332 4.48981 10.263 4.32025 10.138 4.19522C10.0129 4.0702 9.84338 3.99996 9.66656 3.99996C9.48975 3.99996 9.32018 4.0702 9.19516 4.19522C9.07014 4.32025 8.9999 4.48981 8.9999 4.66663H10.3332ZM5.8619 11.8046L9.19523 15.138L10.1379 14.1953L6.80456 10.862L5.8619 11.8046ZM10.1379 15.138L13.4712 11.8046L12.5286 10.862L9.19523 14.1953L10.1379 15.138ZM10.3332 14.6666V4.66663H8.9999V14.6666H10.3332Z" fill="#475467"/>
</svg>
