<svg width="15" height="15" viewBox="0 0 15 15" fill="none" xmlns="http://www.w3.org/2000/svg">
<path d="M1.25 1.25H2.06635C2.22011 1.25 2.29699 1.25 2.35886 1.27828C2.41339 1.30319 2.45959 1.34327 2.49197 1.39372C2.52871 1.45096 2.53958 1.52707 2.56133 1.67929L2.85714 3.75M2.85714 3.75L3.51458 8.58213C3.598 9.19533 3.63972 9.50193 3.78631 9.73271C3.91549 9.93608 4.10068 10.0978 4.3196 10.1984C4.56804 10.3125 4.87747 10.3125 5.49632 10.3125H10.845C11.4341 10.3125 11.7286 10.3125 11.9693 10.2065C12.1816 10.1131 12.3637 9.9624 12.4952 9.77139C12.6443 9.55476 12.6994 9.26541 12.8097 8.68672L13.6369 4.34356C13.6757 4.13988 13.6951 4.03804 13.667 3.95844C13.6424 3.88861 13.5937 3.8298 13.5297 3.79251C13.4568 3.75 13.3531 3.75 13.1458 3.75H2.85714ZM6.25 13.125C6.25 13.4702 5.97018 13.75 5.625 13.75C5.27982 13.75 5 13.4702 5 13.125C5 12.7798 5.27982 12.5 5.625 12.5C5.97018 12.5 6.25 12.7798 6.25 13.125ZM11.25 13.125C11.25 13.4702 10.9702 13.75 10.625 13.75C10.2798 13.75 10 13.4702 10 13.125C10 12.7798 10.2798 12.5 10.625 12.5C10.9702 12.5 11.25 12.7798 11.25 13.125Z" stroke="white" stroke-width="2.15625" stroke-linecap="round" stroke-linejoin="round"/>
</svg>
