<svg width="435" height="262" viewBox="0 0 435 262" fill="none" xmlns="http://www.w3.org/2000/svg">
<path fill-rule="evenodd" clip-rule="evenodd" d="M405.731 55.2524L405.396 55.3948L402.667 56.2018L401.71 56.5341L400.609 56.8664L400.226 57.0088V57.1512L400.369 59.6197L400.513 61.8984L400.656 63.9871L400.896 64.1295L401.758 63.8922L405.636 62.7529L405.731 62.9902L412.626 60.3793L412.674 60.4742L413.296 60.2369L415.498 59.3824L417.605 61.8984L417.892 61.661L418.036 60.9489L417.988 62.0883H418.467L418.61 62.6579L419.041 63.4649L421.292 60.7591L423.159 61.3762L423.59 60.4268L426.654 58.8127L425.361 56.2968L425.696 57.9108L424.116 59.0976L422.345 59.24L418.802 55.4897L417.222 53.1162L418.802 51.4547L417.174 51.3597L416.504 49.7932L416.456 49.6982L413.727 52.6415L407.694 54.6353L405.731 55.2524Z" fill="#4584E9" stroke="white" stroke-width="0.5" stroke-linejoin="round"/>
<path fill-rule="evenodd" clip-rule="evenodd" d="M225.966 26.1214L226.921 29.5266L228.927 41.8043L229.883 46.6962L230.169 51.0126L231.268 53.6025L231.507 55.8086L231.698 56.528L231.65 56.6719L229.739 59.8372L230.981 61.9475L233.369 78.8294L233.465 81.0355L235.853 80.8917L245.263 80.3641L268.764 78.3977L271.104 78.1579V77.9181L270.435 74.2252L267.522 72.7385L265.229 70.3405L261.599 68.1343L260.452 68.0384L258.685 66.6955L259.163 60.077L257.491 58.5423L258.064 55.8566L261.121 53.0749L260.596 47.3197L261.694 46.0727L265.42 42.14L269.671 36.6726L271.295 35.5216L274.161 34.1307L277.17 31.8766L275.164 32.2603L273.97 31.349L269.385 31.9725L268.668 31.1092L264.56 32.7878L261.264 31.397L260.357 30.2939L257.73 30.4858L255.963 29.5745L256.536 28.9031L254.291 28.1837H252.285L249.084 29.5745L248.463 28.6153L243.4 27.8959L241.681 23.5795L241.49 22.2846L239.292 21.6611L239.483 25.354L233.656 25.7857L226.443 26.0734L225.966 26.1214Z" fill="#8DB5F6" stroke="white" stroke-width="0.5" stroke-linejoin="round"/>
<path fill-rule="evenodd" clip-rule="evenodd" d="M180.459 25.7952L164.619 24.7422L153.085 23.6414L141.6 22.3013L134.47 21.344L123.08 19.5731L117.385 18.6159L104.656 16.1749L103.316 15.8877L101.258 25.6516L102.167 27.4225L102.885 30.1507L102.454 30.5336L103.363 33.0224L104.608 34.0754L108.149 40.0103L108.484 41.0154L109.92 40.9197L108.245 48.7691L107.575 48.9606L106.666 51.593L111.403 51.928L111.786 54.1297L114.466 60.6869L114.945 61.0698L116.811 64.8988L117.289 64.5159L121.261 64.468L126.286 64.9945L127.531 63.3671L129.014 66.0474L129.301 66.191L129.349 65.9038L130.019 61.2133L146.386 63.2235L159.45 64.468L166.341 65.0423L178.64 65.7603L179.262 65.8081H179.406L179.454 65.1381L179.597 61.8356L179.789 57.4801L179.837 56.3792L179.932 54.4648L180.698 39.436L181.32 27.7576L181.368 25.8431L180.459 25.7952Z" fill="#F0F6FF" stroke="white" stroke-width="0.5" stroke-linejoin="round"/>
<path fill-rule="evenodd" clip-rule="evenodd" d="M225.016 26.1677L210.6 26.4561L200.528 26.408L191.888 26.2158L181.768 25.8313L181.243 25.7832L181.196 27.7057L180.575 39.4328L179.811 54.5243L179.716 56.4468L181.577 56.543L202.628 57.1197L222.056 56.9755L230.123 56.7352L231.746 56.6391L231.555 55.9181L231.317 53.7073L230.219 51.1119L229.932 46.7863L228.978 41.884L226.973 29.5801L226.018 26.1677L225.016 26.1677Z" fill="#1C57B6" stroke="white" stroke-width="0.5" stroke-linejoin="round"/>
<path fill-rule="evenodd" clip-rule="evenodd" d="M156.059 243.515L154.577 242.415L153.287 242.75L153.574 245.429L151.805 247.63L153.335 251.123L153.765 254.712L155.533 255.86L156.633 254.09L158.592 252.654L160.982 252.032L163.611 249.783L161.03 247.582L160.982 246.243L156.059 243.515ZM147.36 239.639L146.643 239.017L145.974 239.927L147.36 239.639ZM143.775 237.582L143.966 235.812L143.058 235.668L143.775 237.582ZM146.786 234.663L145.974 235.046L146.547 236.864L147.79 236.96L148.172 238.539L149.511 239.113L152.474 237.726L149.702 235.429L146.786 234.663ZM140.668 232.701L140.238 233.993L142.293 233.945L144.205 234.424L143.202 232.845L140.668 232.701ZM134.646 228.921L133.546 227.869L131.443 229.496L132.782 231.984L133.738 230.979L136.462 231.553L136.223 230.405L134.646 228.921ZM113.232 226.816L113.519 226.146L114.332 225.716L113.232 226.816ZM120.832 222.462L117.486 223.706L117.152 224.615L118.49 225.572L120.354 226.051L121.693 223.419L120.832 222.462Z" fill="#4584E9" stroke="white" stroke-width="0.5" stroke-linejoin="round"/>
<path fill-rule="evenodd" clip-rule="evenodd" d="M103.049 15.9861L98.8156 15.1274L97.4362 14.7935L96.8179 14.6504L91.3002 39.5522L91.538 41.6035L91.3478 43.7502L91.4429 44.2272V44.2749L91.4905 45.1813L93.1077 46.9464L90.777 52.8141L85.8301 59.3019L85.6874 60.4945L86.9717 63.5476L82.453 82.3432L82.2627 83.345L83.5945 83.6312L97.0557 86.3027L102.431 87.3045L103.81 87.543L105.142 87.7815L111.991 88.8787L124.263 90.7392L125.643 90.93L125.833 89.3558L126.261 86.255L127.878 73.8518L128.735 67.6979L128.925 66.1236L128.64 65.9805L127.165 63.3091L125.928 64.931L120.934 64.4063L116.986 64.454L116.51 64.8356L114.655 61.0193L114.179 60.6376L111.516 54.1021L111.135 51.9077L106.426 51.5738L107.33 48.95L107.996 48.7592L109.661 40.9356L108.234 41.031L107.901 40.0293L104.381 34.1139L103.144 33.0644L102.24 30.5837L102.668 30.2021L101.955 27.4829L101.051 25.7179L103.097 15.9861L103.049 15.9861Z" fill="#8DB5F6" stroke="white" stroke-width="0.5" stroke-linejoin="round"/>
<path fill-rule="evenodd" clip-rule="evenodd" d="M49.5925 31.8172L51.3183 33.681L51.0306 37.2653L51.3662 38.1733L53.9548 39.5593L61.2413 40.2283L61.5289 41.0886L64.9804 41.1364L68.2401 41.5665L73.5612 40.993L76.1977 41.4231L76.9168 41.0886L90.3871 44.1472L91.298 44.3384L91.2021 43.8605L91.3938 41.7099L91.1541 39.6549L96.7149 14.7081L95.9479 14.5647L84.7306 11.9362L74.9513 9.45113L63.8778 6.39252L60.5702 5.58008L61.3372 9.73787L60.6181 11.076L59.3238 10.4069L60.5702 16.1896L59.2279 18.1013L58.6047 19.8695V21.6856L55.7764 23.645L54.578 22.8803L53.4275 23.4538L55.5367 20.7297L55.0094 22.5936L56.2079 21.3032L57.1666 21.4944L56.879 19.1049L57.5022 19.2004L58.7965 16.333L58.365 15.9029L56.6872 18.0535L55.5847 18.1013L56.7831 16.7631L58.1254 16.4286L57.646 13.9912L56.3037 13.6567L55.6326 12.5097L54.8177 12.9399L50.4075 11.0282L46.5245 8.01741L45.4699 10.9326L45.374 12.1752L46.189 14.3736L45.6617 21.4944L45.2782 22.5936L47.4353 22.7847L45.2782 24.3141L46.4287 24.8875L45.5179 27.9461L45.0864 25.5566L44.2715 28.3285L45.374 29.6666L46.5725 29.571L48.0106 30.4313L48.7297 31.8172L49.5925 31.8172Z" fill="#1C57B6" stroke="white" stroke-width="0.5" stroke-linejoin="round"/>
<path fill-rule="evenodd" clip-rule="evenodd" d="M134.284 142.511L118.12 140.504L109.439 139.261L97.064 137.302L95.817 137.11V137.206L93.7066 146.478L92.6034 146.431L90.9246 144.949L88.8142 146.717L88.7663 154.317L87.9988 155.942V156.085V156.133L87.9029 157.328L89.5816 161.821L91.0685 163.828L88.3825 165.406L87.3273 167.365L85.6006 171.571L84.7373 171.763L84.6893 175.252L86.1762 176.351L85.4088 178.454L83.6821 178.55L82.6748 180.414L86.1282 182.565L92.6513 186.197L112.796 196.856L129.871 198.959H130.063L131.406 184.859L131.742 181.37L135.339 144.375L135.531 142.655L134.284 142.511Z" fill="#8DB5F6" stroke="white" stroke-width="0.5" stroke-linejoin="round"/>
<path fill-rule="evenodd" clip-rule="evenodd" d="M60.5948 78.3101L58.7343 77.8324L38.3169 72.1954L30.7319 69.9023V70.0934L30.3025 74.8228L28.299 80.412L24.9597 84.5681L24.8643 86.6701L26.4862 89.5841L27.2972 93.4058L26.1523 96.5109L26.3431 99.6161L25.7706 100.906L27.7265 105.158L28.9668 106.782L28.8714 111.416L31.8291 114.234L33.5464 111.368L35.4069 112.849L36.1225 112.18L33.5464 112.658L33.4987 115.094L34.0235 118.151L32.5923 116.766L31.7814 114.903L31.5428 117.483L32.2107 122.594L34.8821 125.89L33.1171 128.183L33.4033 131.097L35.3115 134.059L38.6508 143.231L39.7003 143.804L39.3663 150.158L39.8911 150.922L47.0467 153.502L49.2411 155.843L50.0044 157.372L52.1034 158.566L54.3932 158.996L55.3473 161.623L57.2554 162.531L60.1177 165.923L62.7891 170.365L62.5983 174.474L64.0771 176.432L83.5882 178.343L85.3055 178.248L86.0688 176.146L84.59 175.047L84.6377 171.56L85.4964 171.368L87.2137 167.165L88.2632 165.206L90.9347 163.63L89.4558 161.623L87.7862 157.133L87.8816 155.938V155.891L86.6413 154.219L82.8249 149.107L75.4308 138.693L65.1267 123.884L59.3067 115.811L53.6776 107.689L60.1654 80.1254L60.5948 78.3101Z" fill="#8DB5F6" stroke="white" stroke-width="0.5" stroke-linejoin="round"/>
<path fill-rule="evenodd" clip-rule="evenodd" d="M191.914 115.767L192.104 106.452L189.818 106.357L178.199 105.929L177.056 105.882L176.104 105.834L161.96 104.931L152.532 104.171L140.769 103.03L139.627 102.888L139.484 104.123L136.912 128.883L136.007 137.532L135.626 141.287L135.531 142.522L137.007 142.665L161.008 144.756L171.58 145.421L182.104 145.896L183.628 145.944L184.58 145.991L186.58 146.039L187.532 146.086L190.533 146.182H191.294V145.231L191.818 120.091L191.866 117.287V116.384L191.914 115.767Z" fill="#4584E9" stroke="white" stroke-width="0.5" stroke-linejoin="round"/>
<path fill-rule="evenodd" clip-rule="evenodd" d="M95.9639 135.6L100.922 104.718L103.449 89.2525L103.735 87.7251L102.353 87.4864L96.9651 86.484L83.4725 83.8111L82.1375 83.5247L80.8025 83.2383L74.08 81.7586L62.0177 78.8947L60.6827 78.5605L60.2536 80.3744L53.7695 107.916L59.3954 116.03L65.2121 124.097L75.5103 138.894L82.9003 149.299L86.7145 154.407L87.9541 156.077V155.934L88.7169 154.311L88.7646 146.722L90.8624 144.956L92.5312 146.435L93.6277 146.483L95.7255 137.223V137.128L95.9639 135.6Z" fill="#D5E4FD" stroke="white" stroke-width="0.5" stroke-linejoin="round"/>
<path fill-rule="evenodd" clip-rule="evenodd" d="M183.702 149.631L183.75 148.39L183.798 147.149L183.845 145.908L182.317 145.86L171.762 145.383L161.159 144.714L137.088 142.614L135.608 142.471L135.417 144.189L131.835 181.136L131.5 184.621L130.163 198.703L130.354 198.751L136.945 199.371L137.566 196.03L138.76 195.075L152.133 196.268H152.228L151.034 193.929L157.1 194.359L172.24 195.218L181.696 195.648L183.32 150.872L183.654 150.92L183.702 149.631Z" fill="#143263" stroke="white" stroke-width="0.5" stroke-linejoin="round"/>
<path fill-rule="evenodd" clip-rule="evenodd" d="M30.851 70.1101L38.4288 72.4068L58.8268 78.053L60.6855 78.5314L62.02 78.8664L74.0777 81.7373L80.7976 83.2206L82.1321 83.5077L82.3227 82.5029L86.8503 63.6505L85.5635 60.5881L85.7065 59.3919L90.663 52.8845L92.9983 46.9991L91.3779 45.2287L91.3303 44.3196V44.2717L90.4247 44.0803L77.0326 41.018L76.3177 41.3529L73.6964 40.9223L68.4063 41.4965L65.1655 41.0658L61.734 41.018L61.4481 40.1567L54.2039 39.4868L51.6303 38.0992L51.2967 37.1901L51.5827 33.6014L49.8669 31.7353L49.724 31.7831L49.3903 32.0224L47.0074 30.7783L45.5776 31.209L44.6244 30.7305L43.6236 34.8455L42.9564 35.9938L40.0015 43.219L39.1437 47.1905L38.6194 47.2383L35.8552 53.8415L33.9965 56.6645L33.3293 57.143L31.6136 60.4924L31.2799 64.0332L30.2314 67.1913L30.851 70.0622L30.851 70.1101Z" fill="#143263" stroke="white" stroke-width="0.5" stroke-linejoin="round"/>
<path fill-rule="evenodd" clip-rule="evenodd" d="M124.527 90.824L112.171 88.9659L105.275 87.8701L103.934 87.6318L103.647 89.1565L101.109 104.593L96.1281 135.419L95.8887 136.944L97.1338 137.135L109.489 139.088L118.158 140.327L134.297 142.328L135.542 142.471L135.638 141.232L136.021 137.468L136.931 128.797L139.517 103.974L139.66 102.735L138.703 102.64L126.491 101.163L124.623 100.925L125.82 91.634L125.916 91.0146L124.527 90.824Z" fill="#1C57B6" stroke="white" stroke-width="0.5" stroke-linejoin="round"/>
<path fill-rule="evenodd" clip-rule="evenodd" d="M177.982 84.5347L178.365 77.0891L178.843 67.0661L178.891 65.8251L178.269 65.7774L165.981 65.0615L159.096 64.4887L146.043 63.2478L129.69 61.2432L129.021 65.9206L128.973 66.2069L128.782 67.782L127.921 73.939L126.295 86.3484L125.865 89.4508L125.674 91.0258L125.578 91.6463L124.383 100.953L126.248 101.192L138.44 102.672L139.396 102.767L140.544 102.91L152.354 104.056L161.821 104.819L176.022 105.726L176.978 105.774L177.026 104.533L177.265 99.5215L177.696 90.7872L177.887 87.0644L177.935 85.8234L177.982 84.5347Z" fill="#D5E4FD" stroke="white" stroke-width="0.5" stroke-linejoin="round"/>
<path fill-rule="evenodd" clip-rule="evenodd" d="M291.161 151.445L285.974 152.209L288.088 148.868L287.175 147.006L268.877 148.772L253.412 150.013L251.154 150.157L251.442 151.493L253.316 161.136L253.364 163.284L253.892 176.269L253.94 178.417L254.084 178.465L254.804 179.228L257.686 179.133L257.974 183.334L258.07 184.527L259.559 184.384L264.122 184.05L282.228 182.379H282.324L282.276 181.329L282.757 180.995L281.892 179.372L283.717 171.734L282.997 170.874L285.734 167.867L285.542 165.289L287.559 161.948V161.9L287.463 161.804L289.192 160.229L288.712 158.32L290.057 156.219L289.769 154.262L291.209 151.493V151.445L291.161 151.445Z" fill="#8DB5F6" stroke="white" stroke-width="0.5" stroke-linejoin="round"/>
<path fill-rule="evenodd" clip-rule="evenodd" d="M276.733 87.2033L274.107 85.8285L272.675 83.8848L272.197 81.0877L272.579 79.8077L271.195 78.1484L268.855 78.3855L245.367 80.3292L235.962 80.8507L233.575 80.9929L232.572 81.0403L233.384 86.3026L232.715 88.8152L233.766 90.3796V90.7115L234.1 90.7589L235.628 95.2152L237.108 97.5382L237.203 100.193L238.826 102.421L238.54 103.369L240.02 109.343V109.485L249.807 109.2L260.262 108.3L270.526 107.02L272.866 109.058L272.961 109.153L273.391 108.963L273.057 107.115L274.823 106.024L275.539 101.189L274.823 100.857L275.253 98.3915L277.401 97.9649L279.788 96.2582L280.838 93.2715L280.886 91.7545L278.977 89.953L278.404 88.8152L276.59 87.6774L276.685 87.4404L276.733 87.2033Z" fill="#F0F6FF" stroke="white" stroke-width="0.5" stroke-linejoin="round"/>
<path fill-rule="evenodd" clip-rule="evenodd" d="M250.694 143.969L249.498 123.783L247.345 122.542L247.154 121.587L245.432 120.06L247.106 118.008L246.436 116.815L245.192 116.863L244.044 116.052L243.566 115.67L241.939 115.765L224.287 116.433L216.202 116.624H200.128L193.67 116.529L191.852 116.481V117.388L191.805 120.204L191.278 145.449V146.403L193.335 146.451L204.434 146.594L230.41 146.212L248.924 145.353L250.742 145.21L250.694 143.969Z" fill="#143263" stroke="white" stroke-width="0.5" stroke-linejoin="round"/>
<path fill-rule="evenodd" clip-rule="evenodd" d="M272.996 109.064L270.65 107.011L260.355 108.3L249.869 109.208L240.053 109.494L240.005 109.781L241.202 112.073L242.303 112.838L243.596 115.13L243.788 115.321L244.266 115.703L245.416 116.515L246.661 116.467L247.331 117.661L245.655 119.715L247.379 121.244L247.57 122.199L249.725 123.441L250.922 143.643L250.97 144.885L251.066 146.127L251.114 147.369L251.209 148.658L251.257 149.9L253.508 149.757L268.926 148.515L287.169 146.748L288.079 148.611L285.972 151.954L291.143 151.19H291.191V150.808L291.287 148.611L292.245 147.417L291.957 146.079L291.909 146.031L291.861 145.984L292.053 145.363L292.34 145.458L292.484 145.84L292.436 145.984V146.031V146.414L292.628 146.461L293.011 145.984V145.936L293.058 145.793L294.303 145.029L294.495 144.933L294.926 141.017L294.83 140.826L294.686 140.778L291.287 138.008L291.814 137.005L290.856 134.282L289.132 132.945L285.876 131.512L283.817 129.84L284.057 126.402L284.679 123.202L281.232 123.393L280.178 122.294L279.699 120.097L274.241 115.512L272.709 111.261L273.092 109.16L272.996 109.064Z" fill="#8DB5F6" stroke="white" stroke-width="0.5" stroke-linejoin="round"/>
<path fill-rule="evenodd" clip-rule="evenodd" d="M232.833 90.8301L231.353 89.3568L226.147 87.836L224.475 87.7884L221.944 88.5013L218.935 86.6003L209.526 86.6953L195.818 86.5528L179.627 86.03L178.195 85.9824L178.147 87.2181L177.956 90.9251L177.526 99.6224L177.287 104.613L177.239 105.848L178.386 105.896L190.039 106.324L192.332 106.419L192.141 115.734L192.093 116.352L193.908 116.399L200.356 116.494H216.403L224.475 116.304L242.099 115.639L243.723 115.544L243.532 115.354L242.242 113.072L241.144 112.312L239.949 110.031L239.997 109.746V109.603L238.517 103.615L238.803 102.664L237.179 100.43L237.084 97.769L235.603 95.4402L234.075 90.9727L233.741 90.9252L232.833 90.8301Z" fill="#8DB5F6" stroke="white" stroke-width="0.5" stroke-linejoin="round"/>
<path fill-rule="evenodd" clip-rule="evenodd" d="M251.215 148.738L251.119 147.442L251.071 146.193L250.975 144.944L249.152 145.088L230.588 145.953L204.54 146.337L193.411 146.193L191.348 146.145H190.58L187.558 146.049L186.599 146.001L184.584 145.953L183.625 145.905L183.577 147.153L183.529 148.402L183.481 149.651L183.433 150.948H183.72L195.329 151.236L207.61 151.38L207.754 167.805L208.617 170.686L210.536 172.511L212.599 172.607L213.03 171.743L215.861 174.336L219.554 174.721L220.226 175.489L221.569 174.865L224.927 176.45V177.362L226.174 177.314L227.47 176.209L229.868 177.746L232.123 178.563L233.658 176.45L238.551 178.755L240.374 177.266L241.861 176.69L243.06 176.978L247.569 175.681L249.968 176.69L252.127 178.082L253.997 178.419H254.045L253.997 176.257L253.47 163.194L253.422 161.033L251.551 151.332L251.263 149.987L251.215 148.738Z" fill="#D5E4FD" stroke="white" stroke-width="0.5" stroke-linejoin="round"/>
<path fill-rule="evenodd" clip-rule="evenodd" d="M230.216 56.5835L222.116 56.8241L202.607 56.9684L181.468 56.3911L179.598 56.2949L179.55 57.4013L179.359 61.7788L179.215 65.098L179.167 65.7714H179.023L178.975 67.0222L178.496 77.124L178.112 84.6283L178.064 85.9271L179.502 85.9752L195.752 86.5044L209.509 86.6487L218.952 86.5525L221.972 88.4767L224.512 87.7551L226.19 87.8032L231.415 89.3426L232.901 90.8338L233.811 90.93V90.5933L232.757 89.0058L233.428 86.4563L232.613 81.1167L233.62 81.0686L233.524 78.8558L231.127 61.9231L229.881 59.8065L231.798 56.6317L231.846 56.4874L230.216 56.5835Z" fill="#4584E9" stroke="white" stroke-width="0.5" stroke-linejoin="round"/>
<path fill-rule="evenodd" clip-rule="evenodd" d="M279.829 217.693L280.544 216.791L278.589 216.269L277.73 216.981L279.829 217.693ZM282.261 182.466H282.166L264.185 184.127L259.653 184.46L258.175 184.602L258.223 185.742L259.176 194.905L260.75 197.089L260.798 198.37L262.324 201.029L263.565 204.922L263.135 207.106L262.801 212.518L262.086 214.275H262.181L262.324 215.509L261.514 216.649L267.428 215.984L272.055 217.266L275.346 217.693L277.015 216.506L276.109 215.32L279.161 214.37L279.066 215.414L280.64 215.035L281.928 217.029L283.025 216.649L285.886 218.595L284.122 219.213L288.176 220.399H289.702L290.608 219.308L292.564 218.263L293.947 220.257L294.901 218.453L294.615 215.604L297.191 216.601L297.477 217.456L300.529 217.836L302.056 219.07L301.865 220.067L304.011 218.073L303.2 217.029L299.623 216.127L298.288 215.367L298.24 213.943L299.718 214.133L300.863 211.806L299.385 209.765L298.574 211.711L296.714 211.379L298.001 209.29L297.143 209.053L295.044 210.524L292.039 210.714L291.181 210.05L292.564 207.628L294.186 207.581L296.952 208.483L298.955 208.673L297.858 207.296L295.76 203.213L296.332 200.934L279.877 202.738L280.497 202.121L279.829 200.412L280.831 198.94L281.403 195.237L285.028 189.065L283.263 186.929L283.359 185.362L282.262 182.798L282.261 182.466Z" fill="#1C57B6" stroke="white" stroke-width="0.5" stroke-linejoin="round"/>
<path fill-rule="evenodd" clip-rule="evenodd" d="M183.519 151.178L183.184 151.13L181.556 195.857L172.074 195.428L156.893 194.57L150.811 194.14L152.008 196.477L152.056 196.525L157.228 201.674L160.197 205.155L164.124 208.064L166.902 213.118L167.955 218.411L170.206 219.89L171.978 221.845L174.516 222.751L178.204 225.087L179.88 225.707L182.178 223.418L182.897 220.986L184.094 218.65L187.829 217.172L189.266 217.887L193.432 218.221L197.216 220.557L199.802 221.034L199.083 222.369L200.568 223.323L201.957 224.992L202.244 226.756L203.154 227.948L205.261 233.002L207.368 234.767L208.997 237.437L211.056 239.535L211.966 239.821L212.732 245.257L214.983 246.497L215.079 248.214L215.653 248.07L219.58 252.839L221.544 253.268L224.034 254.746H227.865L230.643 256.272L233.947 255.557L232.463 254.174L231.122 250.169L230.595 246.688L229.829 245.543L230.164 243.207L229.158 243.111L227.817 240.918L229.35 242.539L231.122 241.919L232.08 239.392L230.164 236.817L233.037 237.151L234.378 235.101L234.187 234.385L235.384 232.812L235.097 234.195L236.438 233.146L235.911 231.286L237.635 232.192L239.838 230.952L237.683 228.711L239.024 229.235L241.514 229.379L244.77 228.663L248.41 226.231L250.613 224.419L250.948 223.084L252.289 221.701L251.571 219.413L251.714 217.982L254.109 216.933L253.917 219.46H255.354L253.774 220.796L260.143 217.458L261.197 217.41L261.867 214.358H262.059L262.777 212.594L263.112 207.158L263.543 204.965L262.298 201.055L260.766 198.384L260.718 197.097L259.137 194.903L258.179 185.7L258.132 184.556L258.036 183.364L257.748 179.168L254.875 179.263L254.157 178.5L254.013 178.453H253.965L252.097 178.119L249.942 176.736L247.548 175.735L243.046 177.022L241.849 176.736L240.364 177.308L238.545 178.786L233.66 176.497L232.127 178.596L229.877 177.785L227.482 176.259L226.189 177.356L224.944 177.403V176.498L221.592 174.924L220.251 175.544L219.58 174.781L215.893 174.399L213.067 171.825L212.636 172.683L210.577 172.587L208.661 170.775L207.799 167.914L207.656 151.607L195.396 151.464L183.807 151.178L183.519 151.178Z" fill="#8DB5F6" stroke="white" stroke-width="0.5" stroke-linejoin="round"/>
<path fill-rule="evenodd" clip-rule="evenodd" d="M412.645 60.418L405.832 63.0637L405.737 62.8232L401.904 63.9777L401.053 64.2182L401.147 64.6992L402.945 71.7706L403.513 72.4921L402.283 74.0315L403.135 74.8493L405.879 72.1554L407.346 70.0869L407.63 70.6642L414.538 67.5374L414.68 67.3931L414.632 66.2386L414.349 65.2284L412.882 61.0433L412.692 60.5142L412.645 60.418Z" fill="#8DB5F6" stroke="white" stroke-width="0.5" stroke-linejoin="round"/>
<path fill-rule="evenodd" clip-rule="evenodd" d="M406.268 27.4326L405.644 28.1982L404.923 28.0546L404.538 31.2125V31.2603L405.692 35.5665L405.595 36.4277L403.529 39.155L404.058 41.643V44.753L403.673 47.6237L405.836 55.4705L407.806 54.8485L413.86 52.839L416.599 49.8725V49.107L416.743 47.863L416.407 48.0065L416.359 47.7194L413.332 44.0353L413.236 43.7004L406.268 27.4326Z" fill="#143263" stroke="white" stroke-width="0.5" stroke-linejoin="round"/>
<path fill-rule="evenodd" clip-rule="evenodd" d="M412.614 60.6792L412.807 61.1983L414.298 65.3042L414.587 66.2952L414.635 67.4279L414.731 67.2863L417.04 65.4929L416.607 62.2838L417.57 62.095L415.453 59.5938L413.24 60.4432L412.614 60.6792Z" fill="#1C57B6" stroke="white" stroke-width="0.5" stroke-linejoin="round"/>
<path fill-rule="evenodd" clip-rule="evenodd" d="M405.594 55.3063L403.47 47.4752L403.848 44.6102V41.5064L403.329 39.0234L405.358 36.3016L405.452 35.4421L404.32 31.1445L403.706 31.3833L401.111 32.3383L398.562 33.3411L392.71 35.4898L392.38 35.5853L394.504 40.5991L395.211 45.3264L397.713 49.2897L400.072 57.1208L400.167 57.0731L400.544 56.9298L401.63 56.5956L402.574 56.2613L405.264 55.4495L405.594 55.3063Z" fill="#8DB5F6" stroke="white" stroke-width="0.5" stroke-linejoin="round"/>
<path fill-rule="evenodd" clip-rule="evenodd" d="M304.884 159.647L305.075 160.03L305.74 160.461L306.025 180.08L306.12 190.847L308.544 205.585L308.734 205.537L310.873 205.968L311.443 201.709L312.394 204.102L314.01 205.585L317.099 203.767L316.767 203.48L316.862 203.528L314.723 198.599L335.255 195.249L336.633 195.01V194.962L335.35 192.522L335.255 189.028L334.209 187.114L334.732 183.382L335.588 182.425L332.071 176.108L325.702 156.585L325.654 156.489L324.228 156.729L316.624 157.973L312.822 158.451L304.837 159.552L304.884 159.647Z" fill="#8DB5F6" stroke="white" stroke-width="0.5" stroke-linejoin="round"/>
<path fill-rule="evenodd" clip-rule="evenodd" d="M336.813 195.143L335.425 195.382L314.747 198.719L316.901 203.629L317.045 203.677L316.518 205.632L318.05 204.964L319.725 203.486L322.597 203.391L325.9 202.199L328.149 202.533L327.623 203.343L331.739 204.726L335.281 206.442L336.095 208.349L338.728 207.777L344.95 202.723L347.248 202.819L356.629 209.875L358.544 209.493L360.554 212.163L360.937 216.406L360.315 219.076L360.602 220.41L362.277 223.748L361.512 221.125L363.665 221.078L363.857 222.985L362.708 225.941L366.681 231.375L368.165 231.423L366.92 229.754L368.452 229.945L369.361 229.373L368.978 232.424L371.037 234.045L372.425 237.764L374.292 238.908L376.685 239.528L379.988 243.723L381.711 244.629L379.413 244.772L380.466 245.963L384.248 244.724L386.114 243.675L387.837 237.668L386.976 228.324L386.784 227.371L382.189 219.743L378.264 214.213L376.063 209.684L377.929 211.257L378.312 210.971L379.126 214.928L381.232 217.931L379.174 213.927L379.27 212.02L373.095 204.535L371.611 202.199L369.649 198.242L368.308 194.905L367.255 193.713L367.016 192.188L366.968 192.14L363.665 191.949L362.373 192.95L361.655 196.621L360.985 194.905L338.393 197.718L336.765 195.191L336.813 195.143Z" fill="#1C57B6" stroke="white" stroke-width="0.5" stroke-linejoin="round"/>
<path fill-rule="evenodd" clip-rule="evenodd" d="M345.966 152.778L345.345 152.922L343.529 153.304L336.839 154.689L336.218 154.832L335.549 154.928L331.822 155.644L330.818 155.835L326.757 156.599L325.896 156.695L325.944 156.79L332.348 176.277L335.884 182.581L335.024 183.536L334.498 187.262L335.549 189.172L335.645 192.659L336.935 195.095V195.142L336.887 195.19L338.512 197.721L361.067 194.904L361.736 196.623L362.453 192.945L363.743 191.942L367.04 192.133L366.753 186.975L367.374 185.877L367.04 183.823L367.709 181.865L368.712 180.766L367.996 180.098L369.668 178.044H369.62L366.753 175.369L362.835 169.781L360.684 168.778L351.462 161.041L349.216 158.175L344.867 156.36L344.628 155.405L345.966 152.778Z" fill="#4584E9" stroke="white" stroke-width="0.5" stroke-linejoin="round"/>
<path fill-rule="evenodd" clip-rule="evenodd" d="M287.368 161.986V162.034L285.341 165.378L285.534 167.958L282.783 170.968L283.507 171.828L281.673 179.472L282.542 181.096L282.059 181.431L282.108 182.482V182.816L283.217 185.396L283.121 186.973L284.906 189.123L281.239 195.334L280.66 199.06L279.646 200.541L280.322 202.261L279.695 202.882L296.343 201.067L295.764 203.36L297.888 207.469L298.997 208.854V208.807L300.783 206.8L304.547 205.988L308.021 206.37L308.552 205.701V205.653L306.091 190.938L305.995 180.189L305.705 160.6L305.03 160.17L304.836 159.788H304.74L302.327 160.123L298.081 160.696L288.429 161.89L287.368 161.986Z" fill="#4584E9" stroke="white" stroke-width="0.5" stroke-linejoin="round"/>
<path fill-rule="evenodd" clip-rule="evenodd" d="M345.817 152.471L344.479 155.118L344.718 156.081L349.067 157.909L351.314 160.797L360.539 168.593L362.69 169.604L366.609 175.235L369.477 177.93L369.955 175.716L369.19 173.598L371.246 175.139L372.393 174.224L370.433 172.588L372.823 172.443L376.551 169.267L376.121 168.449L378.415 166.668L378.176 165.802L379.849 164.743L379.945 162.289L382.574 157.38L384.343 155.118L384.534 155.022L373.875 148.236L369.907 149.006L364.506 148.814L361.829 147.418L345.96 152.471H345.817Z" fill="#1C57B6" stroke="white" stroke-width="0.5" stroke-linejoin="round"/>
<path fill-rule="evenodd" clip-rule="evenodd" d="M276.732 87.3222L276.636 87.5608L278.449 88.7062L279.022 89.8516L280.931 91.6651L280.883 93.1923L279.833 96.1989L277.447 97.917L275.3 98.3465L274.871 100.828L275.586 101.162L274.871 106.03L273.105 107.128L273.439 108.989L273.01 109.18L272.628 111.28L274.155 115.527L279.595 120.109L280.072 122.304L281.122 123.402L284.557 123.211L283.937 126.408L283.698 129.844L285.75 131.515L288.995 132.946L290.713 134.283L291.667 137.003L291.142 138.005L294.53 140.773L294.673 140.821L294.387 140.535L295.341 138.292L299.016 139.294L299.922 138.244L299.207 136.144L302.213 134.378L301.402 133.233L302.117 131.61V131.467L301.926 131.419L301.974 127.172L303.024 126.408L304.837 122.161L304.456 120.3L303.263 118.057L303.931 115.527L300.59 91.9992L300.113 91.4742L298.873 88.6585L297.871 87.6086L297.441 84.8406V84.7451L290.999 85.6519L287.134 86.1291L276.732 87.3222Z" fill="#8DB5F6" stroke="white" stroke-width="0.5" stroke-linejoin="round"/>
<path fill-rule="evenodd" clip-rule="evenodd" d="M320.781 88.4571L313.398 89.7501L311.709 90.0854L305.726 91.0432L304.471 92.0489L302.589 92.911L301.865 92.8631L300.997 92.432L300.707 92.1447L304.085 115.755L303.409 118.293L304.616 120.544L305.002 122.412L303.168 126.674L302.106 127.441L302.058 131.703L302.251 131.751L302.444 131.703L303.168 130.362H304.953L307.125 129.644L309.827 130.649L310.117 129.548L311.661 128.398L313.977 128.734L315.232 126.291L318.658 126.579L318.61 125.19L321.65 121.215L321.167 119.395L323.291 119.347L325.896 117.288L325.269 114.941L325.366 114.845L325.269 114.031L322.374 97.0775L321.071 89.8459L320.926 89.0796L320.781 88.4571Z" fill="#D5E4FD" stroke="white" stroke-width="0.5" stroke-linejoin="round"/>
<path fill-rule="evenodd" clip-rule="evenodd" d="M292.249 145.99L292.105 145.607L291.816 145.512L291.623 146.134L291.671 146.182L292.201 146.134L292.249 145.99ZM325.206 114.691L325.11 114.786L325.736 117.131L323.134 119.189L321.014 119.237L321.496 121.056L318.46 125.028L318.509 126.416L315.088 126.129L313.835 128.57L311.522 128.235L309.98 129.383L309.691 130.484L306.993 129.479L304.825 130.197H303.042L302.319 131.537L302.127 131.585V131.728L301.404 133.355L302.223 134.504L299.188 136.275L299.91 138.381L298.995 139.434L295.285 138.429L294.321 140.678L294.61 140.965L294.707 141.156L294.273 145.081L294.08 145.177L292.828 145.942L292.779 146.086L294.177 145.895L303.909 144.602L303.428 142.688L305.066 142.64L324.676 140.056L338.456 137.758L338.649 137.615L338.986 137.232L342.6 135.318L345.394 131.68L345.78 130.436L347.611 129L349.923 126.081L350.261 125.602L350.116 125.554H348.911L347.37 124.693L344.623 121.391L343.66 118.041V117.945L343.563 117.849L341.54 116.701L340.624 115.169L338.793 116.94L337.637 117.227L336.191 116.653L334.939 117.61L332.337 116.461L331.662 116.748L329.205 114.643L327.952 114.021L325.591 114.308L325.206 114.691Z" fill="#F0F6FF" stroke="white" stroke-width="0.5" stroke-linejoin="round"/>
<path fill-rule="evenodd" clip-rule="evenodd" d="M354.426 134.324L354.188 135.044L354.235 137.108L353.711 137.06L352.472 139.604L351.09 139.748L348.516 142.292L347.373 141.86L345.895 144.068L341.987 147.62L340.081 148.1L338.079 149.972L337.984 151.22L336.221 152.18L336.268 154.293V154.773L336.888 154.629L343.56 153.237L345.371 152.852L345.991 152.708H346.134L361.956 147.668L364.625 149.06L370.01 149.252L373.966 148.484L384.594 155.253L384.784 155.109L389.693 153.092L389.741 150.452L391.504 147.236L393.41 145.412L397.366 142.772L397.89 141.812L398.939 142.292L399.415 139.124L398.843 140.228L396.842 140.9L394.935 140.948L397.271 139.22L396.556 138.452L397.366 136.724L392.886 136.004L392.695 135.764L396.508 135.044L397.747 135.668L399.32 135.524L400.607 134.564L401.56 132.692L402.418 132.452L402.275 129.812L401.178 128.756L400.082 129.764L400.321 132.308L399.51 129.188L398.891 129.044L394.173 131.012L396.27 128.948L396.365 128.132L398.557 127.604L399.177 125.972L400.654 126.836L399.082 124.483L397.985 123.523L378.922 128.996L366.769 132.116L354.474 134.42L354.426 134.324Z" fill="#4584E9" stroke="white" stroke-width="0.5" stroke-linejoin="round"/>
<path fill-rule="evenodd" clip-rule="evenodd" d="M354.151 91.5518L352.958 86.3584L352.72 85.3005L351.383 79.3857L349.666 80.4917L345.992 83.3289L343.606 86.2622L341.745 86.5507L338.31 88.5223L336.401 87.3682L330.628 86.695L327.574 87.4644L324.568 88.1857L321.419 88.8589L320.941 89.0032L321.085 89.7726L322.373 97.0337L325.236 114.057L325.331 114.874L325.713 114.489L328.051 114.201L329.292 114.826L331.725 116.942L332.393 116.653L334.97 117.807L336.21 116.846L337.642 117.423L338.787 117.134L340.6 115.355L341.507 116.894L343.511 118.048L343.606 118.144L345.658 117.134L346.373 115.547L345.801 113.912L347.423 111.412L348.616 111.219L348.473 109.104L350.429 106.411L350.763 106.795L352.529 105.449L354.056 103.141L354.294 92.6097L354.39 92.5616L354.151 91.5518Z" fill="#1C57B6" stroke="white" stroke-width="0.5" stroke-linejoin="round"/>
<path fill-rule="evenodd" clip-rule="evenodd" d="M338.408 137.768L324.723 140.066L305.247 142.651L303.62 142.699L304.099 144.614L294.433 145.907L293.045 146.098V146.146L292.662 146.625L292.471 146.577V146.194V146.146L291.944 146.194L291.992 146.242L292.279 147.583L291.322 148.779L291.227 150.982V151.365V151.413L289.791 154.19L290.078 156.153L288.738 158.259L289.217 160.174L287.494 161.754L287.59 161.85L288.643 161.754L298.213 160.558L302.424 159.983L304.816 159.648H304.912L304.864 159.552L312.903 158.451L316.731 157.972L324.388 156.727L325.823 156.488L326.684 156.392L330.752 155.626L331.757 155.435L335.489 154.716L336.159 154.621V154.142L336.111 152.035L337.882 151.078L337.977 149.833L339.987 147.966L341.901 147.487L345.825 143.944L347.308 141.741L348.457 142.172L351.041 139.635L352.429 139.491L353.673 136.954L354.199 137.002L354.151 134.943L354.39 134.225L353.625 134.368L350.897 135.134L347.643 135.805L339.461 137.48L338.599 137.624L338.408 137.768Z" fill="#8DB5F6" stroke="white" stroke-width="0.5" stroke-linejoin="round"/>
<path fill-rule="evenodd" clip-rule="evenodd" d="M399.066 107.64L398.446 107.879L397.492 108.308L397.158 108.738L397.301 108.786L396.157 115.898L396.586 117.044L397.254 114.084L398.493 110.218L399.066 107.688V107.64ZM350.189 125.541L349.855 126.019L347.567 128.931L345.755 130.363L345.373 131.604L342.607 135.232L339.031 137.141L338.697 137.523L339.556 137.38L347.71 135.709L350.952 135.041L353.67 134.277L354.433 134.134L354.481 134.229L366.783 131.938L378.943 128.835L398.017 123.393L397.874 123.154L397.826 123.011L398.16 123.345L398.541 123.25L398.493 123.202L398.16 121.579L398.398 121.627L399.161 123.059L399.304 123.011L399.399 122.963L399.209 122.582L397.254 119.574L394.822 120.004L393.725 120.911L392.676 119.956L389.1 118.763L386.62 118.667L391.436 118.237L394.106 120.052L394.869 118.858L392.724 116.137L394.25 116.233L393.439 114.037L391.532 114.132L387.002 110.456H386.429L392.819 113.607L392.39 111.411L392.819 110.695L389.576 109.454L386.763 109.263L385.38 108.022L384.236 108.738L383.807 105.444L384.284 105.539L384.188 102.866L384.093 102.771L383.997 102.818L383.902 102.771L383.664 102.58L383.521 102.437L381.995 101.768L380.421 100.623L378.228 100.05L378.085 100.002V100.05L377.798 102.055L373.364 100.145L373.459 102.914L371.027 107.544L369.549 109.167L368.595 111.984L365.687 110.981L364.256 117.474L363.112 119.67L362.921 122.534L362.063 123.918L358.868 124.873L356.245 126.926L355.005 127.117L353.813 128.167L350.809 127.069L350.285 125.589L350.189 125.541Z" fill="#143263" stroke="white" stroke-width="0.5" stroke-linejoin="round"/>
<path fill-rule="evenodd" clip-rule="evenodd" d="M298.642 56.3516L297.449 57.8366L296.734 59.9923L297.068 61.1898L298.642 56.3516ZM261.959 46.1962L260.861 47.4417L261.386 53.1901L258.333 55.9684L257.761 58.651L259.43 60.1839L258.953 66.7944L260.718 68.1357L261.863 68.2315L265.489 70.4351L267.778 72.8302L270.688 74.3152L271.356 78.0037V78.2432L272.739 79.9198L272.358 81.2132L272.835 84.0394L274.266 86.0035L276.889 87.3926L276.842 87.6322L287.241 86.4346L291.105 85.9556L297.545 85.0454L297.354 84.3269V82.0754L296.066 79.6803L295.732 76.6624L296.352 73.3092L296.018 70.7225L297.163 67.513L296.734 66.9861L296.829 64.0161L297.449 61.7646L296.734 60.9982L295.35 61.4772L294.587 63.4892L292.774 64.543L293.347 62.0042L294.969 59.8485L295.064 58.8905L295.112 58.8426L292.822 56.5432V53.2858L290.246 51.1781L286.716 50.9386L283.091 49.9805L275.268 47.5854L273.741 46.7232L273.598 46.8669L271.165 46.5315L270.354 47.0106L270.688 43.5137L266.777 45.5256L262.006 46.292L261.959 46.1962Z" fill="#4584E9" stroke="white" stroke-width="0.5" stroke-linejoin="round"/>
<path fill-rule="evenodd" clip-rule="evenodd" d="M363.211 100.022L356.47 101.703L354.382 92.5791L354.287 92.6271L354.049 103.144L352.53 105.449L350.774 106.793L350.442 106.409L348.495 109.098L348.638 111.211L347.451 111.404L345.837 113.901L346.407 115.533L345.695 117.118L343.653 118.127V118.223L344.603 121.584L347.309 124.898L348.828 125.762H350.014L350.157 125.81L350.252 125.858L350.774 127.347L353.765 128.451L354.951 127.395L356.186 127.203L358.797 125.138L361.977 124.177L362.832 122.785L363.021 119.903L364.161 117.694L365.585 111.163L368.481 112.172L369.43 109.339L370.902 107.706L373.323 103.048L373.228 100.263L377.643 102.183L377.927 100.167V100.119L376.551 97.7174L373.702 97.3813L372.041 98.6779V99.6383L370.617 99.9744L368.528 101.463L367.436 101.703L365.253 104.825L364.161 99.7824L363.211 100.022Z" fill="#D5E4FD" stroke="white" stroke-width="0.5" stroke-linejoin="round"/>
<path fill-rule="evenodd" clip-rule="evenodd" d="M391.554 92.1361L391.738 92.8498L395.567 104.125L399.949 102.793L399.903 102.698H399.995L400.133 102.746L400.225 102.698L400.133 102.508L399.026 99.4628L393.629 94.1819L393.86 90.5186H392.753L391.923 91.1846L391.554 92.1361Z" fill="#4584E9" stroke="white" stroke-width="0.5" stroke-linejoin="round"/>
<path fill-rule="evenodd" clip-rule="evenodd" d="M400.226 102.7L400.131 102.747L400.226 103.032V103.601V102.7ZM364.3 99.7582L365.393 104.74L367.579 101.656L368.672 101.419L370.763 99.948L372.188 99.6159V98.667L373.852 97.386L376.703 97.7181L378.081 100.09L378.223 100.138L380.409 100.707L381.978 101.846L383.498 102.51L383.641 102.652L383.831 102.273L384.639 102.225L385.304 102.605L384.686 103.744V103.791L383.944 106.495L386.73 108.441L389.676 108.583L391.624 109.485L390.816 107.207L388.298 106.353L387.68 104.408L389.248 106.495L390.531 106.685L389.391 105.547L388.488 102.178L388.726 100.233L387.728 98.0977L388.773 97.2437L389.533 94.4918L389.248 98.5721L390.056 99.948L390.816 98.3349L391.244 100.992L390.436 102.937L392.765 103.791L390.769 104.455L391.814 106.401L393.525 106.97L394.476 105.309L394.381 107.634L395.996 107.587L397.042 108.773H397.089L397.422 108.346L398.372 107.919L398.99 107.682L398.943 107.587L400.178 103.933V103.791L399.94 102.842V102.795L395.426 104.123L391.482 92.8787L391.292 92.167L390.484 92.4042L387.11 93.448L368.529 98.6195L365.155 99.521L364.3 99.7582Z" fill="#4584E9" stroke="white" stroke-width="0.5" stroke-linejoin="round"/>
<path fill-rule="evenodd" clip-rule="evenodd" d="M401.038 75.6885L396.043 74.4523L395.187 74.2146L394.378 74.0244L392.38 78.446L393.236 79.492L393.189 82.6774L394.093 82.8201L395.948 87.6696L395.853 87.8122L393.522 91.2354L393.76 93.8503L399.373 95.7521L399.421 97.9391L400.705 96.1324L400.896 93.5175L402.228 92.6142L401.704 90.6649L402.703 88.3352V83.248L402.37 81.5839L400.134 81.6315L400.705 79.3494L401.038 75.6885Z" fill="#8DB5F6" stroke="white" stroke-width="0.5" stroke-linejoin="round"/>
<path fill-rule="evenodd" clip-rule="evenodd" d="M407.508 77.0348L409.893 74.9384V74.8432L407.508 77.0348ZM401.26 78.5118V76.8919L401.117 77.7495L401.26 78.5118ZM412.278 70.0788L409.082 73.0327L404.17 75.129L402.882 76.2249L402.786 77.273L401.451 78.3688L401.642 79.7982L403.693 78.9882L406.698 76.5584L410.036 74.7955L415.092 70.0311L411.515 72.7468L410.37 73.2233L412.278 70.0788ZM360.144 66.3149L359.381 66.2196L359.953 66.9819L360.144 66.3149ZM356.042 75.3673L356.376 76.7966L358.904 77.416L373.404 73.4615L388 69.0782L390.671 71.1269L391.196 72.318L394.296 73.6521L394.391 73.8427L395.202 74.0332L396.061 74.2714L401.069 75.5102L400.974 75.272L401.403 77.2254L402.357 76.9872L402.882 74.8432V74.7955L402.023 73.9856L403.263 72.461L402.691 71.7463L400.878 64.7426L400.783 64.2662L400.544 64.1232L400.401 62.0269L400.258 59.74L400.115 57.2625V57.1195L400.02 57.1672L397.635 49.3536L395.107 45.3991L394.391 40.6823L392.245 35.6797L391.959 35.8226L381.99 39.1577L379.987 41.3017L377.745 45.5897L377.84 46.5426L374.883 51.0211L376.695 51.6405L377.22 55.0232L375.121 57.7866L368.825 61.5981L367.633 61.1217L362.958 61.7887L358.618 64.4091L358.856 65.7908L360.383 67.1248L359.524 71.3175L356.09 75.3196L356.042 75.3673Z" fill="#4584E9" stroke="white" stroke-width="0.5" stroke-linejoin="round"/>
<path fill-rule="evenodd" clip-rule="evenodd" d="M394.429 73.6556L391.332 72.3202L390.808 71.1279L388.14 69.0771L373.56 73.4648L359.075 77.4232L356.55 76.8032L356.216 75.3725L355.406 75.9925L354.12 76.8986L351.785 79.2832L351.499 79.5216L352.833 85.3877L353.071 86.4369L354.263 91.5877L354.501 92.5892L356.597 101.651L363.363 99.9814L364.316 99.7429L365.174 99.5045L368.557 98.5983L387.187 93.3999L390.57 92.3507L391.38 92.1123L391.761 91.1584L392.618 90.4907H393.762L393.905 90.0615L395.763 87.9631L395.954 87.6292L396.097 87.5339L394.238 82.6693L393.333 82.5262L393.381 79.3309L392.523 78.2817L394.524 73.8463L394.429 73.6556Z" fill="#F0F6FF" stroke="white" stroke-width="0.5" stroke-linejoin="round"/>
<path fill-rule="evenodd" clip-rule="evenodd" d="M433.438 23.847L433.148 23.7034L433.1 23.847H433.438ZM406.008 27.3413L413.01 43.6158L413.107 43.9509L416.149 47.6366V47.5887L416.632 47.4451L416.729 44.7167L417.502 43.7594L417.984 41.2225L417.55 40.7917L418.371 38.3026L421.172 37.0102L423.007 34.8084L423.683 30.9791L426.629 30.7876L426.243 28.8251L429.913 27.437L430.154 25.283L431.024 25.4745L433.438 23.5119L434.501 20.975L432.038 18.5338L429.43 18.0073L428.464 16.0448V14.896L426.87 15.3747L425.084 14.7524V12.7899L420.254 2.45076L416.729 0.631836L412.817 3.88675L411.755 3.69528L410.837 2.01996L409.581 2.49862L407.795 11.306L408.422 14.178L408.954 20.0177L407.553 24.5171L408.519 25.2351L407.36 27.437L406.104 27.2455L406.008 27.3413Z" fill="#D5E4FD" stroke="white" stroke-width="0.5" stroke-linejoin="round"/>
<path d="M311.602 89.9737L305.701 90.9304L305.986 90.739L308.271 85.4774L308.699 80.7897L308.271 78.2546L304.844 71.6536L305.32 69.9794L304.94 66.5833L305.606 63.8568L305.082 61.2259L306.129 60.4128L307.7 57.9255L309.032 55.1033V58.8343L310.507 57.782L310.174 54.8163L311.697 52.903L311.506 50.7505L313.505 48.2632L317.93 49.5546L318.406 50.2721L323.165 51.0853L325.306 55.8686L325.163 61.5129L323.783 64.7178L323.117 64.9569L323.593 68.1618L325.163 68.4488L326.781 65.3874L326.448 64.9569L329.541 62.8044L330.398 63.0436L332.063 64.9091L333.967 69.9794L335.252 72.3711L335.394 76.1977L334.871 77.2022L333.491 76.3891L331.73 80.8376L331.873 83.4206L330.303 86.5297L330.35 86.6732L327.305 87.4385L324.307 88.156L321.166 88.8257L320.69 88.9692L320.548 88.3474L313.267 89.6389L311.602 89.9737Z" fill="#143263"/>
<path d="M275.389 47.3543L273.866 46.4933L274.009 46.3976L277.721 43.5755L280.338 42.9058L284.954 38.4573L285.096 39.3183L287.096 39.9307L285.144 38.4095L290.711 35.6352L289.793 36.1584L287.714 38.4095L287.096 39.9307L292.282 41.5186L295.518 44.3408L297.136 43.6233L299.705 44.2451L300.181 43.2885L304.369 40.7055L306.7 40.562L310.317 38.84L310.031 39.5097L310.888 41.5665L313.553 41.9013L316.455 40.275L316.17 43.3841L317.645 44.2451L318.454 45.5845L315.123 46.1106L314.361 45.6323L313.553 47.737L311.887 46.876L307.604 46.3498L307.271 47.0195L303.036 48.6458L301.275 51.3723L300.99 49.6503L299.277 51.5636L297.04 53.1421L295.185 58.5473V58.5951L292.9 56.2991V53.0465L290.331 50.9418L286.809 50.7026L283.193 49.746L275.389 47.3543Z" fill="#143263"/>
<path d="M280.671 31.7129L284.478 29.082L283.478 30.804L280.481 33.0044L280.671 31.7129Z" fill="#143263"/>
<path d="M311.602 89.9737L305.701 90.9304L305.986 90.739L308.271 85.4774L308.699 80.7897L308.271 78.2546L304.844 71.6536L305.32 69.9794L304.94 66.5833L305.606 63.8568L305.082 61.2259L306.129 60.4128L307.7 57.9255L309.032 55.1033V58.8343L310.507 57.782L310.174 54.8163L311.697 52.903L311.506 50.7505L313.505 48.2632L317.93 49.5546L318.406 50.2721L323.165 51.0853L325.306 55.8686L325.163 61.5129L323.783 64.7178L323.117 64.9569L323.593 68.1618L325.163 68.4488L326.781 65.3874L326.448 64.9569L329.541 62.8044L330.398 63.0436L332.063 64.9091L333.967 69.9794L335.252 72.3711L335.394 76.1977L334.871 77.2022L333.491 76.3891L331.73 80.8376L331.873 83.4206L330.303 86.5297L330.35 86.6732L327.305 87.4385L324.307 88.156L321.166 88.8257L320.69 88.9692L320.548 88.3474L313.267 89.6389L311.602 89.9737Z" stroke="white" stroke-width="0.5" stroke-linejoin="round"/>
<path d="M275.389 47.3543L273.866 46.4933L274.009 46.3976L277.721 43.5755L280.338 42.9058L284.954 38.4573L285.096 39.3183L287.096 39.9307L285.144 38.4095L290.711 35.6352L289.793 36.1584L287.714 38.4095L287.096 39.9307L292.282 41.5186L295.518 44.3408L297.136 43.6233L299.705 44.2451L300.181 43.2885L304.369 40.7055L306.7 40.562L310.317 38.84L310.031 39.5097L310.888 41.5665L313.553 41.9013L316.455 40.275L316.17 43.3841L317.645 44.2451L318.454 45.5845L315.123 46.1106L314.361 45.6323L313.553 47.737L311.887 46.876L307.604 46.3498L307.271 47.0195L303.036 48.6458L301.275 51.3723L300.99 49.6503L299.277 51.5636L297.04 53.1421L295.185 58.5473V58.5951L292.9 56.2991V53.0465L290.331 50.9418L286.809 50.7026L283.193 49.746L275.389 47.3543Z" stroke="white" stroke-width="0.5" stroke-linejoin="round"/>
<path d="M280.671 31.7129L284.478 29.082L283.478 30.804L280.481 33.0044L280.671 31.7129Z" stroke="white" stroke-width="0.5" stroke-linejoin="round"/>
<path fill-rule="evenodd" clip-rule="evenodd" d="M0.739302 257.199L0.5 257.295L0.691443 257.342L0.739302 257.199ZM1.64864 256.675V256.818L1.74436 256.77L1.64864 256.675ZM2.12724 256.914V256.818L2.07936 256.866L2.12724 256.914ZM2.03152 256.818V256.77H1.9358L2.03152 256.818ZM2.03152 256.246L2.07939 255.96L1.88796 256.056L2.03152 256.246ZM7.48755 258.582L7.43967 258.534L7.53539 258.725L7.48755 258.582ZM3.94591 256.914L3.41946 256.437V257.581L3.94591 256.914ZM5.14241 257.962L5.09454 257.628L4.28092 257.581L5.14241 257.962ZM8.014 258.629L7.96613 258.725H8.06185L8.014 258.629ZM8.20545 258.677H8.10973L8.30116 258.725L8.20545 258.677ZM8.77977 258.868H8.73189H8.68401H8.77977ZM7.72685 258.2L7.34397 258.153L7.48755 258.296L7.72685 258.2ZM8.92334 258.296L8.82763 258.248V258.296H8.92334ZM11.8428 258.868L9.97626 259.011L9.54552 259.201L11.8428 258.868ZM17.6338 261.06V260.869H17.5381L17.6338 261.06ZM20.1226 261.108L20.2183 261.012L20.1226 260.917V261.108ZM21.9891 261.632L22.0848 261.584H22.0369L21.9891 261.632ZM20.4576 260.774L20.4097 260.583H20.314L20.4576 260.774ZM23.6642 261.489L23.6163 261.537H23.6642V261.489ZM21.1276 260.774L21.2233 260.488H21.1755L21.1276 260.774ZM29.2159 260.059L29.2638 259.964L29.1681 259.916L29.2159 260.059ZM28.0194 259.63L26.3443 261.108L27.5408 261.012L28.9288 259.916L28.0194 259.63ZM31.0346 260.154L30.6996 260.059L30.9389 260.25L31.0346 260.154ZM31.7047 260.202L31.1782 260.059L31.0825 260.107L31.7047 260.202ZM29.886 259.535H29.3595L30.2689 259.773L29.886 259.535ZM32.0875 260.012L32.0397 259.916L31.8482 259.964L32.0875 260.012ZM30.6517 259.44L30.4603 259.344V259.869L30.6517 259.44ZM98.4692 255.388L98.0385 255.627L98.4214 255.817L98.4692 255.388ZM34.7198 257.914L33.5233 258.153L32.4704 259.535L34.7198 257.914ZM97.512 252.481L96.8899 254.245L97.512 253.863V252.481ZM92.7739 252.672L94.1618 254.769L97.2727 256.723L96.5548 255.055L93.5875 252.529L92.7739 252.672ZM94.4011 251.861L94.2097 252.576L94.5447 252.338L94.4011 251.861ZM95.4062 251.861L95.3583 252.338L95.7891 252.481L95.4062 251.861ZM53.2895 255.96L53.098 256.294L53.1938 256.008L53.2895 255.96ZM54.0074 256.008L53.5766 256.056L53.8159 256.342L54.0074 256.008ZM93.6354 250.908L93.8747 251.814L94.3533 251.528L93.6354 250.908ZM91.5774 251.29L91.8167 253.482L92.2953 253.005L91.5774 251.29ZM91.8167 250.575L92.9175 252.1L92.7739 251.099L91.8167 250.575ZM88.5144 250.241L90.4288 253.387L90.1416 251.242L88.5144 250.241ZM56.2568 252.004L55.0124 252.815L53.4809 254.816L54.2467 255.627L57.7883 253.005L56.2568 252.004ZM55.9696 251.433L56.0175 251.623L56.3525 251.814L55.9696 251.433ZM88.658 247.191L90.6202 250.05L90.0938 247.429L88.658 247.191ZM57.0704 250.289L55.9218 251.147L56.4482 251.719L57.9797 250.575L57.0704 250.289ZM71.0934 245.713L71.6677 244.998L71.4762 245.141L71.0934 245.713ZM34.9113 240.518L32.614 240.423L34.1934 242.091L34.9113 240.518ZM30.0296 227.364L29.6467 228.794L30.8432 228.984L32.4226 230.605L33.3798 230.176L30.0296 227.364ZM54.9167 208.442L52.9545 210.063L51.758 209.729L48.9821 211.302L48.4556 210.968L45.2969 214.495L42.0903 215.21L42.3774 216.926L43.8132 218.88L46.4934 221.454L46.0626 222.455L48.0727 223.313L47.0198 223.503L45.7276 222.502L46.3977 223.98L45.5362 224.504L42.8082 222.026L40.6545 222.407L36.9692 223.789L38.6443 225.648L38.405 226.792L39.5058 228.126L43.1432 229.556L45.7755 228.222L46.2062 229.222L45.4883 232.225H43.2868L40.7023 233.369L40.5587 232.559L39.2187 233.083L38.5965 234.465L36.3949 236.133V238.564L37.2564 238.945L36.5864 240.995L39.458 243.473L41.2766 242.71L40.8938 245.761L41.4202 246.428L43.6218 246.905L44.4354 247.81L46.3498 247.953L47.2591 248.906L49.2214 248.334L48.312 249.574L47.5942 252.1L41.7552 255.865L40.9895 256.627L39.8887 256.199L38.1179 256.627L35.5813 258.296L39.5537 257.152L40.128 258.01L45.249 256.341L45.3926 257.009L47.4027 255.007L51.6144 252.1L51.9494 252.29L55.6346 249.383L54.6774 248.239L55.9218 246.19L59.1762 242.329L61.665 241.853L62.4307 242.377L59.4155 243.235L58.6019 246.428L58.6977 248.144L59.7506 248.049L64.8237 244.998L65.2066 243.854L64.7759 242.091L66.3074 242.472L67.4081 241.757L70.5669 243.664L70.3276 244.188L77.5066 245.094L79.1817 244.569L79.6603 245.284L85.8821 248.239L86.935 247.62L87.0307 244.045L87.8443 245.665L91.8646 248.573L92.1996 249.764L95.6934 251.718L96.6027 254.244L97.4642 252.29L99.235 255.722L100.431 253.768L99.4743 251.337L95.7891 250.956L90.1416 245.57L87.0786 243.33L84.7334 245.618H83.3455L80.1389 243.521L76.9801 243.378L72.4813 215.115L71.7155 213.78L69.8969 212.684L67.1688 213.208L65.063 212.78L62.3829 211.731L59.5591 211.922L58.8412 210.587L56.5918 210.253L56.2089 209.443L55.2039 210.587L54.9167 208.442Z" fill="#4584E9"/>
<path d="M2.51012 257.485V257.533M1.2179 256.437V256.389M50.1307 253.291L50.0828 253.244M61.4257 241.948V241.805M0.739302 257.199L0.5 257.295L0.691443 257.342L0.739302 257.199ZM1.64864 256.675V256.818L1.74436 256.77L1.64864 256.675ZM2.12724 256.914V256.818L2.07936 256.866L2.12724 256.914ZM2.03152 256.818V256.77H1.9358L2.03152 256.818ZM2.03152 256.246L2.07939 255.96L1.88796 256.056L2.03152 256.246ZM7.48755 258.582L7.43967 258.534L7.53539 258.725L7.48755 258.582ZM3.94591 256.914L3.41946 256.437V257.581L3.94591 256.914ZM5.14241 257.962L5.09454 257.628L4.28092 257.581L5.14241 257.962ZM8.014 258.629L7.96613 258.725H8.06185L8.014 258.629ZM8.20545 258.677H8.10973L8.30116 258.725L8.20545 258.677ZM8.77977 258.868H8.73189H8.68401H8.77977ZM7.72685 258.2L7.34397 258.153L7.48755 258.296L7.72685 258.2ZM8.92334 258.296L8.82763 258.248V258.296H8.92334ZM11.8428 258.868L9.97626 259.011L9.54552 259.201L11.8428 258.868ZM17.6338 261.06V260.869H17.5381L17.6338 261.06ZM20.1226 261.108L20.2183 261.012L20.1226 260.917V261.108ZM21.9891 261.632L22.0848 261.584H22.0369L21.9891 261.632ZM20.4576 260.774L20.4097 260.583H20.314L20.4576 260.774ZM23.6642 261.489L23.6163 261.537H23.6642V261.489ZM21.1276 260.774L21.2233 260.488H21.1755L21.1276 260.774ZM29.2159 260.059L29.2638 259.964L29.1681 259.916L29.2159 260.059ZM28.0194 259.63L26.3443 261.108L27.5408 261.012L28.9288 259.916L28.0194 259.63ZM31.0346 260.154L30.6996 260.059L30.9389 260.25L31.0346 260.154ZM31.7047 260.202L31.1782 260.059L31.0825 260.107L31.7047 260.202ZM29.886 259.535H29.3595L30.2689 259.773L29.886 259.535ZM32.0875 260.012L32.0397 259.916L31.8482 259.964L32.0875 260.012ZM30.6517 259.44L30.4603 259.344V259.869L30.6517 259.44ZM98.4692 255.388L98.0385 255.627L98.4214 255.817L98.4692 255.388ZM34.7198 257.914L33.5233 258.153L32.4704 259.535L34.7198 257.914ZM97.512 252.481L96.8899 254.245L97.512 253.863V252.481ZM92.7739 252.672L94.1618 254.769L97.2727 256.723L96.5548 255.055L93.5875 252.529L92.7739 252.672ZM94.4011 251.861L94.2097 252.576L94.5447 252.338L94.4011 251.861ZM95.4062 251.861L95.3583 252.338L95.7891 252.481L95.4062 251.861ZM53.2895 255.96L53.098 256.294L53.1938 256.008L53.2895 255.96ZM54.0074 256.008L53.5766 256.056L53.8159 256.342L54.0074 256.008ZM93.6354 250.908L93.8747 251.814L94.3533 251.528L93.6354 250.908ZM91.5774 251.29L91.8167 253.482L92.2953 253.005L91.5774 251.29ZM91.8167 250.575L92.9175 252.1L92.7739 251.099L91.8167 250.575ZM88.5144 250.241L90.4288 253.387L90.1416 251.242L88.5144 250.241ZM56.2568 252.004L55.0124 252.815L53.4809 254.816L54.2467 255.627L57.7883 253.005L56.2568 252.004ZM55.9696 251.433L56.0175 251.623L56.3525 251.814L55.9696 251.433ZM88.658 247.191L90.6202 250.05L90.0938 247.429L88.658 247.191ZM57.0704 250.289L55.9218 251.147L56.4482 251.719L57.9797 250.575L57.0704 250.289ZM71.0934 245.713L71.6677 244.998L71.4762 245.141L71.0934 245.713ZM34.9113 240.518L32.614 240.423L34.1934 242.091L34.9113 240.518ZM30.0296 227.364L29.6467 228.794L30.8432 228.984L32.4226 230.605L33.3798 230.176L30.0296 227.364ZM54.9167 208.442L52.9545 210.063L51.758 209.729L48.9821 211.302L48.4556 210.968L45.2969 214.495L42.0903 215.21L42.3774 216.926L43.8132 218.88L46.4934 221.454L46.0626 222.455L48.0727 223.313L47.0198 223.503L45.7276 222.502L46.3977 223.98L45.5362 224.504L42.8082 222.026L40.6545 222.407L36.9692 223.789L38.6443 225.648L38.405 226.792L39.5058 228.126L43.1432 229.556L45.7755 228.222L46.2062 229.222L45.4883 232.225H43.2868L40.7023 233.369L40.5587 232.559L39.2187 233.083L38.5965 234.465L36.3949 236.133V238.564L37.2564 238.945L36.5864 240.995L39.458 243.473L41.2766 242.71L40.8938 245.761L41.4202 246.428L43.6218 246.905L44.4354 247.81L46.3498 247.953L47.2591 248.906L49.2214 248.334L48.312 249.574L47.5942 252.1L41.7552 255.865L40.9895 256.627L39.8887 256.199L38.1179 256.627L35.5813 258.296L39.5537 257.152L40.128 258.01L45.249 256.341L45.3926 257.009L47.4027 255.007L51.6144 252.1L51.9494 252.29L55.6346 249.383L54.6774 248.239L55.9218 246.19L59.1762 242.329L61.665 241.853L62.4307 242.377L59.4155 243.235L58.6019 246.428L58.6977 248.144L59.7506 248.049L64.8237 244.998L65.2066 243.854L64.7759 242.091L66.3074 242.472L67.4081 241.757L70.5669 243.664L70.3276 244.188L77.5066 245.094L79.1817 244.569L79.6603 245.284L85.8821 248.239L86.935 247.62L87.0307 244.045L87.8443 245.665L91.8646 248.573L92.1996 249.764L95.6934 251.718L96.6027 254.244L97.4642 252.29L99.235 255.722L100.431 253.768L99.4743 251.337L95.7891 250.956L90.1416 245.57L87.0786 243.33L84.7334 245.618H83.3455L80.1389 243.521L76.9801 243.378L72.4813 215.115L71.7155 213.78L69.8969 212.684L67.1688 213.208L65.063 212.78L62.3829 211.731L59.5591 211.922L58.8412 210.587L56.5918 210.253L56.2089 209.443L55.2039 210.587L54.9167 208.442Z" stroke="white" stroke-width="0.5" stroke-linejoin="round"/>
</svg>
