<svg width="15" height="16" viewBox="0 0 15 16" fill="none" xmlns="http://www.w3.org/2000/svg">
<path d="M7.625 10.6029C8.68355 10.6029 9.54167 9.7784 9.54167 8.76128C9.54167 7.74416 8.68355 6.91962 7.625 6.91962C6.56645 6.91962 5.70833 7.74416 5.70833 8.76128C5.70833 9.7784 6.56645 10.6029 7.625 10.6029Z" stroke="white" stroke-width="2.875" stroke-linecap="round" stroke-linejoin="round"/>
<path d="M1.875 7.26651C1.875 6.91392 1.875 6.73763 1.9223 6.57528C1.96419 6.43146 2.03304 6.2962 2.12546 6.17613C2.2298 6.04058 2.37462 5.93235 2.66428 5.71588L6.99742 2.47756C7.22187 2.30981 7.3341 2.22594 7.45803 2.1937C7.56737 2.16525 7.68263 2.16525 7.79197 2.1937C7.9159 2.22594 8.02813 2.30981 8.25258 2.47756L12.5857 5.71588C12.8754 5.93235 13.0202 6.04058 13.1245 6.17613C13.217 6.2962 13.2858 6.43146 13.3277 6.57528C13.375 6.73763 13.375 6.91392 13.375 7.26651V11.7079C13.375 12.3955 13.375 12.7394 13.2357 13.002C13.1132 13.233 12.9178 13.4208 12.6773 13.5385C12.404 13.6724 12.0462 13.6724 11.3306 13.6724H3.91944C3.20382 13.6724 2.84601 13.6724 2.57268 13.5385C2.33225 13.4208 2.13677 13.233 2.01427 13.002C1.875 12.7394 1.875 12.3955 1.875 11.7079V7.26651Z" stroke="white" stroke-width="2.875" stroke-linecap="round" stroke-linejoin="round"/>
</svg>
