<svg width="30" height="25" viewBox="0 0 30 25" fill="none" xmlns="http://www.w3.org/2000/svg">
<path d="M2 1.13184H28C28.8284 1.13184 29.5 1.80341 29.5 2.63184V22.6318C29.5 23.4603 28.8284 24.1318 28 24.1318H2C1.17157 24.1318 0.5 23.4603 0.5 22.6318V2.63184C0.5 1.80341 1.17157 1.13184 2 1.13184Z" fill="white"/>
<path d="M2 1.13184H28C28.8284 1.13184 29.5 1.80341 29.5 2.63184V22.6318C29.5 23.4603 28.8284 24.1318 28 24.1318H2C1.17157 24.1318 0.5 23.4603 0.5 22.6318V2.63184C0.5 1.80341 1.17157 1.13184 2 1.13184Z" stroke="#C0D5DE"/>
<path d="M10 12.6318C10 12.0796 10.4477 11.6318 11 11.6318C11.5523 11.6318 12 12.0796 12 12.6318C12 13.1841 11.5523 13.6318 11 13.6318C10.4477 13.6318 10 13.1841 10 12.6318Z" fill="#616469"/>
<path d="M13.6667 12.6318C13.6667 12.0796 14.1144 11.6318 14.6667 11.6318C15.219 11.6318 15.6667 12.0796 15.6667 12.6318C15.6667 13.1841 15.219 13.6318 14.6667 13.6318C14.1144 13.6318 13.6667 13.1841 13.6667 12.6318Z" fill="#616469"/>
<path d="M18.3333 11.6318C17.781 11.6318 17.3333 12.0796 17.3333 12.6318C17.3333 13.1841 17.781 13.6318 18.3333 13.6318C18.8856 13.6318 19.3333 13.1841 19.3333 12.6318C19.3333 12.0796 18.8856 11.6318 18.3333 11.6318Z" fill="#616469"/>
</svg>
