<svg width="173" height="50" viewBox="0 0 173 50" fill="none" xmlns="http://www.w3.org/2000/svg">
<g clip-path="url(#clip0_33_4971)">
<path d="M69.9706 37.2928V38.9256H50.7686V10.333H53.6277C55.1078 10.333 56.5274 10.921 57.5741 11.9677C58.6207 13.0143 59.2087 14.4339 59.2087 15.9141V31.7117H64.388C65.121 31.7115 65.8469 31.8557 66.5242 32.1361C67.2015 32.4164 67.817 32.8275 68.3354 33.3458C68.8538 33.8641 69.2651 34.4794 69.5456 35.1566C69.8262 35.8338 69.9706 36.5597 69.9706 37.2928Z" fill="#020266"/>
<path d="M96.9623 29.6992H79.6419C80.1681 32.2298 81.8743 33.5374 84.4049 33.5374C85.6551 33.5374 86.7697 33.1913 87.5941 32.5806C88.4934 31.9189 89.5315 31.4644 90.6493 31.4644H96.6099C94.9675 36.4985 90.2491 39.6447 84.3969 39.6447C77.1176 39.6447 71.7263 34.6137 71.7263 27.875C71.7263 21.1123 77.0746 16.1404 84.3969 16.1404C91.9154 16.1404 97.1218 21.2128 97.1218 27.6836C97.1205 28.3586 97.0672 29.0324 96.9623 29.6992ZM79.7838 25.4927H89.2142C88.5094 23.2873 86.8223 22.0978 84.4049 22.0978C82.0625 22.0978 80.4344 23.3017 79.7838 25.4927Z" fill="#020266"/>
<path d="M124.649 29.6992H107.329C107.855 32.2298 109.561 33.5374 112.092 33.5374C113.342 33.5374 114.457 33.1913 115.281 32.5806C116.18 31.9189 117.219 31.4644 118.336 31.4644H124.297C122.654 36.4985 117.936 39.6447 112.084 39.6447C104.805 39.6447 99.4133 34.6137 99.4133 27.875C99.4133 21.1123 104.762 16.1404 112.084 16.1404C119.602 16.1404 124.809 21.2128 124.809 27.6836C124.808 28.3586 124.754 29.0324 124.649 29.6992ZM107.476 25.4927H116.906C116.201 23.2873 114.514 22.0978 112.097 22.0978C109.749 22.0978 108.121 23.3017 107.476 25.4927Z" fill="#020266"/>
<path d="M143.853 35.3552V38.9254H138.324C133.166 38.9254 130.033 35.9436 130.033 31.0418V22.718H125.762V20.9432L136.213 10.4189H137.864V16.8675H143.724V22.718H138.066V29.7342C138.066 31.3129 139.074 32.2664 140.769 32.2664C141.174 32.2664 141.576 32.3464 141.95 32.5016C142.325 32.6569 142.665 32.8845 142.951 33.1714C143.238 33.4583 143.465 33.7988 143.619 34.1735C143.774 34.5482 143.853 34.9498 143.853 35.3552Z" fill="#020266"/>
<path d="M172.216 22.4264V38.9081H165.997L165.31 37.3486C163.396 38.8124 160.98 39.6544 158.271 39.6544C151.137 39.6544 146.039 34.7351 146.039 27.8799C146.039 21.0248 151.142 16.1868 158.271 16.1868C161.019 16.1868 163.471 17.0526 165.397 18.5563L166.22 16.8501H166.635C168.114 16.8501 169.533 17.4375 170.58 18.4831C171.626 19.5287 172.215 20.947 172.216 22.4264ZM164.573 27.8911C164.573 25.0208 162.361 22.8777 159.352 22.8777C156.343 22.8777 154.13 25.0352 154.13 27.8911C154.13 30.747 156.342 32.9204 159.352 32.9204C162.363 32.9204 164.573 30.7757 164.573 27.8911Z" fill="#020266"/>
<path d="M29.8474 34.8625C29.0646 36.147 28.0198 37.252 26.7812 38.1055C25.5426 38.9591 24.138 39.5419 22.6589 39.8161C21.1799 40.0903 19.6597 40.0496 18.1975 39.6968C16.7353 39.3439 15.3638 38.6868 14.1726 37.7683C12.9814 36.8498 11.9972 35.6905 11.2841 34.366C10.5711 33.0415 10.1452 31.5816 10.0343 30.0815C9.92345 28.5814 10.13 27.0748 10.6406 25.6598C11.1511 24.2449 11.9542 22.9535 12.9974 21.8698L20.712 14.1552L20.7231 14.1695C21.6529 13.2398 22.3905 12.136 22.8937 10.9212C23.3969 9.70644 23.6558 8.40443 23.6558 7.08955C23.6558 5.77467 23.3969 4.47267 22.8937 3.25788C22.3905 2.04309 21.6529 0.939313 20.7231 0.00956755L20.712 0L5.88229 14.8297L5.82807 14.8855C3.81497 16.9597 2.26004 19.4336 1.264 22.147C0.267962 24.8605 -0.14697 27.7529 0.0460832 30.6369C0.68392 40.8423 8.89925 49.1612 19.0999 49.9314C21.8314 50.142 24.5777 49.809 27.1798 48.9517C29.7819 48.0944 32.1882 46.7298 34.2597 44.9368C36.3312 43.1438 38.0267 40.9579 39.2482 38.5056C40.4697 36.0533 41.193 33.3832 41.3763 30.6496H37.1251C34.1273 30.656 31.4165 32.3 29.8474 34.8625Z" fill="#FD671E"/>
<path d="M25.9946 28.1271C25.9982 29.3774 25.5123 30.5794 24.6408 31.4758C24.6105 31.5077 24.5786 31.5396 24.5435 31.5715L21.1949 34.9201L17.7458 31.471C17.199 30.9064 16.7992 30.2162 16.5815 29.461C16.3637 28.7058 16.3347 27.9087 16.497 27.1397C16.6593 26.3706 17.0078 25.6532 17.5121 25.0504C18.0164 24.4475 18.6609 23.9777 19.3892 23.6821C20.1175 23.3865 20.9071 23.2742 21.6889 23.3551C22.4707 23.436 23.2207 23.7075 23.873 24.1459C24.5254 24.5843 25.0601 25.1762 25.4303 25.8695C25.8005 26.5628 25.9948 27.3364 25.9962 28.1224L25.9946 28.1271Z" fill="#141388"/>
</g>
<defs>
<clipPath id="clip0_33_4971">
<rect width="172.216" height="50" fill="white"/>
</clipPath>
</defs>
</svg>
