<svg width="15" height="15" viewBox="0 0 15 15" fill="none" xmlns="http://www.w3.org/2000/svg">
<path d="M13.6505 7.99794L9.03625 12.9198C8.62427 13.3593 7.91016 13.0516 7.91016 12.4218V9.60926H4.1748C3.80951 9.60926 3.51562 9.29579 3.51562 8.90614V6.09364C3.51562 5.70399 3.80951 5.39052 4.1748 5.39052H7.91016V2.57802C7.91016 1.95106 8.62152 1.64052 9.03625 2.07997L13.6505 7.00184C13.9059 7.27723 13.9059 7.72255 13.6505 7.99794ZM5.27344 12.7733V11.6015C5.27344 11.4081 5.12512 11.2499 4.94385 11.2499H2.63672C2.15057 11.2499 1.75781 10.8309 1.75781 10.3124V4.68739C1.75781 4.16884 2.15057 3.74989 2.63672 3.74989H4.94385C5.12512 3.74989 5.27344 3.59169 5.27344 3.39833V2.22645C5.27344 2.03309 5.12512 1.87489 4.94385 1.87489H2.63672C1.18103 1.87489 0 3.13466 0 4.68739V10.3124C0 11.8651 1.18103 13.1249 2.63672 13.1249H4.94385C5.12512 13.1249 5.27344 12.9667 5.27344 12.7733Z" fill="#CD0A0A"/>
</svg>
