<svg width="40" height="40" viewBox="0 0 40 40" fill="none" xmlns="http://www.w3.org/2000/svg">
<circle cx="20" cy="20" r="19.5" fill="#020266" stroke="white"/>
<path d="M25.87 23.5366C25.4538 24.2196 24.8983 24.8071 24.2397 25.2609C23.5811 25.7148 22.8343 26.0247 22.0479 26.1704C21.2615 26.3162 20.4532 26.2946 19.6757 26.107C18.8982 25.9194 18.169 25.57 17.5356 25.0816C16.9023 24.5932 16.379 23.9768 15.9998 23.2726C15.6207 22.5684 15.3943 21.7921 15.3353 20.9945C15.2764 20.1969 15.3862 19.3958 15.6576 18.6435C15.9291 17.8912 16.3561 17.2045 16.9108 16.6283L21.0127 12.5264L21.0186 12.534C21.513 12.0397 21.9051 11.4528 22.1727 10.8069C22.4402 10.161 22.5779 9.46868 22.5779 8.76955C22.5779 8.07042 22.4402 7.37814 22.1727 6.73223C21.9051 6.08632 21.513 5.49944 21.0186 5.00509L21.0127 5L13.1276 12.885L13.0988 12.9147C12.0284 14.0176 11.2017 15.333 10.6721 16.7757C10.1425 18.2184 9.92186 19.7564 10.0245 21.2898C10.3636 26.7161 14.7318 31.1393 20.1555 31.5488C21.6079 31.6608 23.0681 31.4837 24.4516 31.0279C25.8352 30.572 27.1147 29.8465 28.2161 28.8931C29.3175 27.9398 30.219 26.7775 30.8685 25.4736C31.518 24.1697 31.9026 22.75 32 21.2966H29.7396C28.1457 21.3 26.7043 22.1741 25.87 23.5366Z" fill="#FD671E"/>
<path d="M23.8212 19.9557C23.8232 20.6204 23.5648 21.2595 23.1014 21.7362C23.0853 21.7531 23.0683 21.7701 23.0497 21.787L21.2692 23.5675L19.4353 21.7336C19.1446 21.4334 18.932 21.0664 18.8162 20.6649C18.7005 20.2633 18.685 19.8395 18.7713 19.4306C18.8576 19.0217 19.0429 18.6403 19.311 18.3197C19.5792 17.9992 19.9219 17.7494 20.3091 17.5922C20.6963 17.435 21.1162 17.3753 21.5319 17.4183C21.9476 17.4613 22.3463 17.6057 22.6932 17.8388C23.04 18.0719 23.3243 18.3866 23.5212 18.7553C23.718 19.1239 23.8213 19.5352 23.8221 19.9531L23.8212 19.9557Z" fill="white"/>
</svg>
