<svg width="20" height="16" viewBox="0 0 20 16" fill="none" xmlns="http://www.w3.org/2000/svg">
<path d="M1.66675 3.83325L8.47085 8.59612C9.02182 8.9818 9.29731 9.17465 9.59697 9.24934C9.86166 9.31532 10.1385 9.31532 10.4032 9.24934C10.7029 9.17465 10.9783 8.9818 11.5293 8.59612L18.3334 3.83325M5.66675 14.6666H14.3334C15.7335 14.6666 16.4336 14.6666 16.9684 14.3941C17.4388 14.1544 17.8212 13.772 18.0609 13.3016C18.3334 12.7668 18.3334 12.0667 18.3334 10.6666V5.33325C18.3334 3.93312 18.3334 3.23306 18.0609 2.69828C17.8212 2.22787 17.4388 1.84542 16.9684 1.60574C16.4336 1.33325 15.7335 1.33325 14.3334 1.33325H5.66675C4.26662 1.33325 3.56655 1.33325 3.03177 1.60574C2.56137 1.84542 2.17892 2.22787 1.93923 2.69828C1.66675 3.23306 1.66675 3.93312 1.66675 5.33325V10.6666C1.66675 12.0667 1.66675 12.7668 1.93923 13.3016C2.17892 13.772 2.56137 14.1544 3.03177 14.3941C3.56655 14.6666 4.26662 14.6666 5.66675 14.6666Z" stroke="#475467" stroke-width="1.5" stroke-linecap="round" stroke-linejoin="round"/>
</svg>
