<svg width="503" height="300" viewBox="0 0 503 300" fill="none" xmlns="http://www.w3.org/2000/svg">
<g filter="url(#filter0_d_130_688)">
<rect x="104" y="90" width="360" height="92" rx="8" fill="white" shape-rendering="crispEdges"/>
<circle cx="147" cy="136" r="23" fill="#01013D"/>
<g clip-path="url(#clip0_130_688)">
<path d="M151.279 140.513C150.821 141.266 150.162 141.877 149.377 142.277C148.592 142.678 147.711 142.853 146.833 142.782C144.54 142.602 142.671 140.755 142.472 138.466C142.409 137.786 142.494 137.101 142.72 136.457C142.946 135.813 143.308 135.226 143.782 134.734L147.215 131.299L147.22 131.305C147.634 130.892 147.962 130.4 148.186 129.86C148.409 129.319 148.525 128.74 148.524 128.155C148.524 127.57 148.409 126.99 148.185 126.45C147.961 125.909 147.633 125.418 147.219 125.004L147.215 125L140.617 131.597L140.593 131.622C139.696 132.545 139.003 133.647 138.56 134.855C138.116 136.063 137.932 137.351 138.018 138.635C138.305 143.177 141.958 146.877 146.496 147.223C151.694 147.618 156.08 143.674 156.41 138.642H154.518C153.182 138.642 151.977 139.373 151.279 140.513Z" fill="#FD671E"/>
<path d="M149.565 137.517C149.565 138.072 149.349 138.605 148.962 139.003C148.949 139.017 148.935 139.032 148.917 139.048L147.426 140.54L145.891 139.005C145.648 138.754 145.47 138.446 145.373 138.11C145.276 137.774 145.263 137.419 145.336 137.077C145.408 136.735 145.564 136.415 145.788 136.147C146.013 135.879 146.3 135.67 146.624 135.539C146.949 135.407 147.3 135.358 147.648 135.394C147.996 135.431 148.33 135.552 148.62 135.747C148.91 135.943 149.148 136.207 149.312 136.516C149.476 136.824 149.562 137.169 149.562 137.519L149.565 137.517Z" fill="white"/>
</g>
<path d="M188.984 127.144C192.62 127.144 195.284 124.426 195.284 120.7C195.284 116.974 192.62 114.256 188.984 114.256C185.348 114.256 182.684 116.974 182.684 120.7C182.684 124.426 185.348 127.144 188.984 127.144ZM188.984 125.29C186.554 125.29 184.808 123.364 184.808 120.7C184.808 118.036 186.554 116.092 188.984 116.092C191.414 116.092 193.16 118.036 193.16 120.7C193.16 123.364 191.414 125.29 188.984 125.29ZM202.761 119.836L202.869 117.946C202.599 117.838 202.203 117.784 201.861 117.784C200.763 117.784 199.575 118.576 199.089 119.656V117.928H197.127V127H199.089V123.616C199.089 120.808 200.259 119.62 201.591 119.62C202.005 119.62 202.437 119.692 202.761 119.836ZM207.764 127.144C208.97 127.144 210.068 126.604 210.5 125.848V127H212.462V114.256H210.5V119.062C209.96 118.306 208.898 117.784 207.728 117.784C204.992 117.784 203.426 119.728 203.426 122.464C203.426 125.2 204.992 127.144 207.764 127.144ZM208.016 125.434C206.432 125.434 205.388 124.246 205.388 122.464C205.388 120.664 206.432 119.494 208.016 119.494C209.6 119.494 210.644 120.664 210.644 122.464C210.644 124.246 209.6 125.434 208.016 125.434ZM223.181 122.122C223.181 119.908 221.633 117.784 218.717 117.784C215.837 117.784 214.289 120.016 214.289 122.464C214.289 124.912 215.927 127.144 218.807 127.144C220.931 127.144 222.479 126.136 222.965 124.39L221.111 123.922C220.877 124.912 220.031 125.47 218.843 125.47C217.403 125.47 216.395 124.498 216.215 122.932H223.145C223.163 122.77 223.181 122.392 223.181 122.122ZM216.305 121.438C216.593 120.088 217.475 119.332 218.717 119.332C220.157 119.332 220.967 120.214 221.093 121.438H216.305ZM230.64 119.836L230.748 117.946C230.478 117.838 230.082 117.784 229.74 117.784C228.642 117.784 227.454 118.576 226.968 119.656V117.928H225.006V127H226.968V123.616C226.968 120.808 228.138 119.62 229.47 119.62C229.884 119.62 230.316 119.692 230.64 119.836ZM245.052 127H247.23L242.316 114.4H240.354L235.458 127H237.636L238.752 124.03H243.936L245.052 127ZM239.436 122.212L241.344 117.172L243.252 122.212H239.436ZM252.4 127.144C254.614 127.144 256.18 126.01 256.558 124.12L254.632 123.742C254.416 124.804 253.606 125.434 252.454 125.434C250.906 125.434 249.88 124.264 249.88 122.464C249.88 120.664 250.888 119.494 252.454 119.494C253.606 119.494 254.452 120.196 254.632 121.222L256.54 120.844C256.234 118.972 254.632 117.784 252.4 117.784C249.682 117.784 247.846 119.674 247.846 122.464C247.846 125.254 249.682 127.144 252.4 127.144ZM262.402 127.144C264.616 127.144 266.182 126.01 266.56 124.12L264.634 123.742C264.418 124.804 263.608 125.434 262.456 125.434C260.908 125.434 259.882 124.264 259.882 122.464C259.882 120.664 260.89 119.494 262.456 119.494C263.608 119.494 264.454 120.196 264.634 121.222L266.542 120.844C266.236 118.972 264.634 117.784 262.402 117.784C259.684 117.784 257.848 119.674 257.848 122.464C257.848 125.254 259.684 127.144 262.402 127.144ZM276.742 122.122C276.742 119.908 275.194 117.784 272.278 117.784C269.398 117.784 267.85 120.016 267.85 122.464C267.85 124.912 269.488 127.144 272.368 127.144C274.492 127.144 276.04 126.136 276.526 124.39L274.672 123.922C274.438 124.912 273.592 125.47 272.404 125.47C270.964 125.47 269.956 124.498 269.776 122.932H276.706C276.724 122.77 276.742 122.392 276.742 122.122ZM269.866 121.438C270.154 120.088 271.036 119.332 272.278 119.332C273.718 119.332 274.528 120.214 274.654 121.438H269.866ZM278.566 130.276H280.528V125.956C281.086 126.676 282.148 127.144 283.246 127.144C285.964 127.144 287.62 125.2 287.62 122.464C287.62 119.728 286.036 117.784 283.354 117.784C282.094 117.784 281.032 118.342 280.528 119.08V117.928H278.566V130.276ZM283.03 125.434C281.446 125.434 280.402 124.246 280.402 122.464C280.402 120.664 281.446 119.494 283.03 119.494C284.614 119.494 285.658 120.664 285.658 122.464C285.658 124.246 284.614 125.434 283.03 125.434ZM294.437 126.928L294.311 125.182C293.969 125.344 293.555 125.398 293.213 125.398C292.475 125.398 291.971 124.93 291.971 124.03V119.602H294.311V117.928H291.971V115.228H290.009V117.928H288.425V119.602H290.009V124.138C290.009 126.208 291.287 127.144 292.997 127.144C293.501 127.144 294.005 127.072 294.437 126.928ZM304.304 122.122C304.304 119.908 302.756 117.784 299.84 117.784C296.96 117.784 295.412 120.016 295.412 122.464C295.412 124.912 297.05 127.144 299.93 127.144C302.054 127.144 303.602 126.136 304.088 124.39L302.234 123.922C302 124.912 301.154 125.47 299.966 125.47C298.526 125.47 297.518 124.498 297.338 122.932H304.268C304.286 122.77 304.304 122.392 304.304 122.122ZM297.428 121.438C297.716 120.088 298.598 119.332 299.84 119.332C301.28 119.332 302.09 120.214 302.216 121.438H297.428ZM309.981 127.144C311.187 127.144 312.285 126.604 312.717 125.848V127H314.679V114.256H312.717V119.062C312.177 118.306 311.115 117.784 309.945 117.784C307.209 117.784 305.643 119.728 305.643 122.464C305.643 125.2 307.209 127.144 309.981 127.144ZM310.233 125.434C308.649 125.434 307.605 124.246 307.605 122.464C307.605 120.664 308.649 119.494 310.233 119.494C311.817 119.494 312.861 120.664 312.861 122.464C312.861 124.246 311.817 125.434 310.233 125.434Z" fill="black"/>
<path d="M187.004 157H188.282L193.106 144.4H191.864L187.634 155.668L183.422 144.4H182.18L187.004 157ZM201.344 151.978C201.344 149.53 199.598 147.784 197.114 147.784C194.54 147.784 192.776 149.764 192.776 152.464C192.776 155.164 194.54 157.144 197.114 157.144C199.184 157.144 200.66 156.118 201.074 154.318L199.994 154.102C199.724 155.38 198.644 156.1 197.096 156.1C195.26 156.1 193.946 154.678 193.928 152.572H201.308C201.326 152.446 201.344 152.14 201.344 151.978ZM194.018 151.528C194.342 149.854 195.512 148.828 197.114 148.828C198.896 148.828 199.994 149.962 200.174 151.528H194.018ZM203.423 157H204.557V153.022C204.557 150.448 205.799 148.828 207.635 148.828C209.039 148.828 209.867 149.782 209.867 151.096V157H211.001V150.952C211.001 149.044 209.651 147.784 207.797 147.784C206.357 147.784 205.223 148.63 204.557 149.818V147.928H203.423V157ZM217.506 157.144C218.946 157.144 220.26 156.424 220.656 155.542V157H221.79V144.256H220.656V149.386C220.062 148.45 218.748 147.784 217.506 147.784C214.626 147.784 213.096 149.872 213.096 152.464C213.096 155.056 214.626 157.144 217.506 157.144ZM217.542 156.1C215.58 156.1 214.302 154.66 214.302 152.464C214.302 150.268 215.58 148.828 217.542 148.828C219.504 148.828 220.782 150.268 220.782 152.464C220.782 154.66 219.504 156.1 217.542 156.1ZM228.426 157.144C231.072 157.144 232.98 155.2 232.98 152.464C232.98 149.728 231.072 147.784 228.426 147.784C225.762 147.784 223.872 149.728 223.872 152.464C223.872 155.2 225.762 157.144 228.426 157.144ZM228.426 156.1C226.41 156.1 225.06 154.588 225.06 152.464C225.06 150.34 226.41 148.828 228.426 148.828C230.424 148.828 231.792 150.34 231.792 152.464C231.792 154.588 230.424 156.1 228.426 156.1ZM240.086 149.044L240.158 147.946C239.834 147.838 239.474 147.784 239.078 147.784C237.962 147.784 236.756 148.648 236.198 149.854V147.928H235.064V157H236.198V153.49C236.198 150.394 237.386 148.828 238.898 148.828C239.312 148.828 239.726 148.9 240.086 149.044ZM246.103 157H247.237V153.13C247.237 150.502 248.461 148.828 250.297 148.828C251.827 148.828 252.727 149.692 252.727 151.132V157H253.861V150.988C253.861 149.044 252.511 147.784 250.459 147.784C249.091 147.784 247.939 148.45 247.237 149.908V144.256H246.103V157ZM259.822 147.784C257.932 147.784 256.492 148.972 256.222 150.754L257.32 150.97C257.482 149.638 258.436 148.828 259.822 148.828C261.28 148.828 262.27 149.692 262.27 151.06V151.312L260.452 151.492C257.446 151.798 255.988 152.734 255.988 154.48C255.988 156.064 257.23 157.144 259.066 157.144C260.488 157.144 261.73 156.442 262.27 155.344V157H263.404V151.024C263.404 149.098 261.928 147.784 259.822 147.784ZM259.156 156.1C258.004 156.1 257.176 155.452 257.176 154.48C257.176 153.364 258.292 152.68 260.488 152.446L262.27 152.266V152.806C262.27 154.894 261.118 156.1 259.156 156.1ZM269.025 157.144C270.969 157.144 272.265 156.1 272.265 154.516C272.283 150.736 266.901 152.248 266.901 150.124C266.901 149.278 267.621 148.828 268.809 148.828C269.907 148.828 270.861 149.494 271.113 150.466L272.103 150.016C271.743 148.684 270.393 147.784 268.881 147.784C266.973 147.784 265.731 148.684 265.731 150.124C265.731 153.562 271.095 151.87 271.095 154.516C271.095 155.344 270.267 156.1 269.025 156.1C267.459 156.1 266.739 155.182 266.343 154.03L265.335 154.534C265.695 155.776 266.811 157.144 269.025 157.144ZM282.058 147.784C280.168 147.784 278.728 148.972 278.458 150.754L279.556 150.97C279.718 149.638 280.672 148.828 282.058 148.828C283.516 148.828 284.506 149.692 284.506 151.06V151.312L282.688 151.492C279.682 151.798 278.224 152.734 278.224 154.48C278.224 156.064 279.466 157.144 281.302 157.144C282.724 157.144 283.966 156.442 284.506 155.344V157H285.64V151.024C285.64 149.098 284.164 147.784 282.058 147.784ZM281.392 156.1C280.24 156.1 279.412 155.452 279.412 154.48C279.412 153.364 280.528 152.68 282.724 152.446L284.506 152.266V152.806C284.506 154.894 283.354 156.1 281.392 156.1ZM292.179 157.144C294.159 157.144 295.617 156.082 296.031 154.21L294.915 153.994C294.645 155.344 293.601 156.1 292.179 156.1C290.199 156.1 288.921 154.66 288.921 152.464C288.921 150.268 290.199 148.828 292.179 148.828C293.601 148.828 294.645 149.692 294.879 150.862L295.995 150.628C295.653 148.918 294.159 147.784 292.179 147.784C289.479 147.784 287.733 149.638 287.733 152.464C287.733 155.29 289.479 157.144 292.179 157.144ZM301.935 157.144C303.915 157.144 305.373 156.082 305.787 154.21L304.671 153.994C304.401 155.344 303.357 156.1 301.935 156.1C299.955 156.1 298.677 154.66 298.677 152.464C298.677 150.268 299.955 148.828 301.935 148.828C303.357 148.828 304.401 149.692 304.635 150.862L305.751 150.628C305.409 148.918 303.915 147.784 301.935 147.784C299.235 147.784 297.489 149.638 297.489 152.464C297.489 155.29 299.235 157.144 301.935 157.144ZM315.813 151.978C315.813 149.53 314.067 147.784 311.583 147.784C309.009 147.784 307.245 149.764 307.245 152.464C307.245 155.164 309.009 157.144 311.583 157.144C313.653 157.144 315.129 156.118 315.543 154.318L314.463 154.102C314.193 155.38 313.113 156.1 311.565 156.1C309.729 156.1 308.415 154.678 308.397 152.572H315.777C315.795 152.446 315.813 152.14 315.813 151.978ZM308.487 151.528C308.811 149.854 309.981 148.828 311.583 148.828C313.365 148.828 314.463 149.962 314.643 151.528H308.487ZM317.892 160.276H319.026V155.542C319.674 156.478 320.988 157.144 322.194 157.144C325.074 157.144 326.586 155.056 326.586 152.464C326.586 149.872 325.074 147.784 322.176 147.784C320.808 147.784 319.494 148.504 319.026 149.386V147.928H317.892V160.276ZM322.14 156.1C320.196 156.1 318.918 154.66 318.918 152.464C318.918 150.268 320.196 148.828 322.14 148.828C324.12 148.828 325.398 150.268 325.398 152.464C325.398 154.66 324.12 156.1 322.14 156.1ZM333.098 156.946L333.026 155.848C332.648 156.046 332.234 156.1 331.856 156.1C331.01 156.1 330.434 155.632 330.434 154.606V148.972H332.936V147.928H330.434V145.138H329.3V147.928H327.536V148.972H329.3V154.426C329.3 156.334 330.308 157.144 331.712 157.144C332.18 157.144 332.666 157.09 333.098 156.946ZM342.778 151.978C342.778 149.53 341.032 147.784 338.548 147.784C335.974 147.784 334.21 149.764 334.21 152.464C334.21 155.164 335.974 157.144 338.548 157.144C340.618 157.144 342.094 156.118 342.508 154.318L341.428 154.102C341.158 155.38 340.078 156.1 338.53 156.1C336.694 156.1 335.38 154.678 335.362 152.572H342.742C342.76 152.446 342.778 152.14 342.778 151.978ZM335.452 151.528C335.776 149.854 336.946 148.828 338.548 148.828C340.33 148.828 341.428 149.962 341.608 151.528H335.452ZM348.727 157.144C350.167 157.144 351.481 156.424 351.877 155.542V157H353.011V144.256H351.877V149.386C351.283 148.45 349.969 147.784 348.727 147.784C345.847 147.784 344.317 149.872 344.317 152.464C344.317 155.056 345.847 157.144 348.727 157.144ZM348.763 156.1C346.801 156.1 345.523 154.66 345.523 152.464C345.523 150.268 346.801 148.828 348.763 148.828C350.725 148.828 352.003 150.268 352.003 152.464C352.003 154.66 350.725 156.1 348.763 156.1ZM366.004 147.928L363.106 155.47L360.172 147.928H358.948L362.512 157L361.252 160.276H362.404L367.156 147.928H366.004ZM372.496 157.144C375.142 157.144 377.05 155.2 377.05 152.464C377.05 149.728 375.142 147.784 372.496 147.784C369.832 147.784 367.942 149.728 367.942 152.464C367.942 155.2 369.832 157.144 372.496 157.144ZM372.496 156.1C370.48 156.1 369.13 154.588 369.13 152.464C369.13 150.34 370.48 148.828 372.496 148.828C374.494 148.828 375.862 150.34 375.862 152.464C375.862 154.588 374.494 156.1 372.496 156.1ZM386.712 147.928H385.578V151.906C385.578 154.48 384.336 156.1 382.5 156.1C381.096 156.1 380.268 155.146 380.268 153.832V147.928H379.134V153.976C379.134 155.884 380.484 157.144 382.338 157.144C383.778 157.144 384.912 156.298 385.578 155.11V157H386.712V147.928ZM394.369 149.044L394.441 147.946C394.117 147.838 393.757 147.784 393.361 147.784C392.245 147.784 391.039 148.648 390.481 149.854V147.928H389.347V157H390.481V153.49C390.481 150.394 391.669 148.828 393.181 148.828C393.595 148.828 394.009 148.9 394.369 149.044ZM404.4 157.144C407.046 157.144 408.954 155.2 408.954 152.464C408.954 149.728 407.046 147.784 404.4 147.784C401.736 147.784 399.846 149.728 399.846 152.464C399.846 155.2 401.736 157.144 404.4 157.144ZM404.4 156.1C402.384 156.1 401.034 154.588 401.034 152.464C401.034 150.34 402.384 148.828 404.4 148.828C406.398 148.828 407.766 150.34 407.766 152.464C407.766 154.588 406.398 156.1 404.4 156.1ZM416.061 149.044L416.133 147.946C415.809 147.838 415.449 147.784 415.053 147.784C413.937 147.784 412.731 148.648 412.173 149.854V147.928H411.039V157H412.173V153.49C412.173 150.394 413.361 148.828 414.873 148.828C415.287 148.828 415.701 148.9 416.061 149.044ZM421.131 157.144C422.571 157.144 423.885 156.424 424.281 155.542V157H425.415V144.256H424.281V149.386C423.687 148.45 422.373 147.784 421.131 147.784C418.251 147.784 416.721 149.872 416.721 152.464C416.721 155.056 418.251 157.144 421.131 157.144ZM421.167 156.1C419.205 156.1 417.927 154.66 417.927 152.464C417.927 150.268 419.205 148.828 421.167 148.828C423.129 148.828 424.407 150.268 424.407 152.464C424.407 154.66 423.129 156.1 421.167 156.1ZM436.065 151.978C436.065 149.53 434.319 147.784 431.835 147.784C429.261 147.784 427.497 149.764 427.497 152.464C427.497 155.164 429.261 157.144 431.835 157.144C433.905 157.144 435.381 156.118 435.795 154.318L434.715 154.102C434.445 155.38 433.365 156.1 431.817 156.1C429.981 156.1 428.667 154.678 428.649 152.572H436.029C436.047 152.446 436.065 152.14 436.065 151.978ZM428.739 151.528C429.063 149.854 430.233 148.828 431.835 148.828C433.617 148.828 434.715 149.962 434.895 151.528H428.739ZM443.166 149.044L443.238 147.946C442.914 147.838 442.554 147.784 442.158 147.784C441.042 147.784 439.836 148.648 439.278 149.854V147.928H438.144V157H439.278V153.49C439.278 150.394 440.466 148.828 441.978 148.828C442.392 148.828 442.806 148.9 443.166 149.044Z" fill="#4B5262"/>
</g>
<defs>
<filter id="filter0_d_130_688" x="0" y="0" width="568" height="300" filterUnits="userSpaceOnUse" color-interpolation-filters="sRGB">
<feFlood flood-opacity="0" result="BackgroundImageFix"/>
<feColorMatrix in="SourceAlpha" type="matrix" values="0 0 0 0 0 0 0 0 0 0 0 0 0 0 0 0 0 0 127 0" result="hardAlpha"/>
<feOffset dy="14"/>
<feGaussianBlur stdDeviation="52"/>
<feComposite in2="hardAlpha" operator="out"/>
<feColorMatrix type="matrix" values="0 0 0 0 0 0 0 0 0 0 0 0 0 0 0 0 0 0 0.14 0"/>
<feBlend mode="normal" in2="BackgroundImageFix" result="effect1_dropShadow_130_688"/>
<feBlend mode="normal" in="SourceGraphic" in2="effect1_dropShadow_130_688" result="shape"/>
</filter>
<clipPath id="clip0_130_688">
<rect width="18.4114" height="22.25" fill="white" transform="translate(138 125)"/>
</clipPath>
</defs>
</svg>
