<svg width="518" height="300" viewBox="0 0 518 300" fill="none" xmlns="http://www.w3.org/2000/svg">
<g filter="url(#filter0_d_130_679)">
<rect x="104" y="90" width="310" height="92" rx="8" fill="white" shape-rendering="crispEdges"/>
<circle cx="147" cy="136" r="23" fill="#01013D"/>
<g clip-path="url(#clip0_130_679)">
<path d="M151.279 140.513C150.821 141.266 150.162 141.877 149.377 142.277C148.592 142.678 147.711 142.853 146.833 142.782C144.54 142.602 142.671 140.755 142.472 138.466C142.409 137.786 142.494 137.101 142.72 136.457C142.946 135.813 143.308 135.226 143.782 134.734L147.215 131.299L147.22 131.305C147.634 130.892 147.962 130.4 148.185 129.86C148.409 129.319 148.524 128.74 148.524 128.155C148.524 127.57 148.409 126.99 148.185 126.45C147.961 125.909 147.633 125.418 147.219 125.004L147.215 125L140.617 131.597L140.593 131.622C139.696 132.545 139.003 133.647 138.56 134.855C138.116 136.063 137.931 137.351 138.018 138.635C138.305 143.177 141.957 146.877 146.496 147.223C151.694 147.618 156.08 143.674 156.41 138.642H154.518C153.182 138.642 151.976 139.373 151.279 140.513Z" fill="#FD671E"/>
<path d="M149.565 137.517C149.565 138.072 149.349 138.605 148.962 139.003C148.949 139.017 148.935 139.032 148.917 139.048L147.426 140.54L145.891 139.005C145.648 138.754 145.47 138.446 145.373 138.11C145.276 137.774 145.263 137.419 145.336 137.077C145.408 136.735 145.564 136.415 145.788 136.147C146.013 135.879 146.3 135.67 146.624 135.539C146.949 135.407 147.3 135.358 147.648 135.394C147.996 135.431 148.33 135.552 148.62 135.747C148.91 135.943 149.148 136.207 149.312 136.516C149.476 136.824 149.562 137.169 149.562 137.519L149.565 137.517Z" fill="white"/>
</g>
<path d="M188.984 127.144C192.62 127.144 195.284 124.426 195.284 120.7C195.284 116.974 192.62 114.256 188.984 114.256C185.348 114.256 182.684 116.974 182.684 120.7C182.684 124.426 185.348 127.144 188.984 127.144ZM188.984 125.29C186.554 125.29 184.808 123.364 184.808 120.7C184.808 118.036 186.554 116.092 188.984 116.092C191.414 116.092 193.16 118.036 193.16 120.7C193.16 123.364 191.414 125.29 188.984 125.29ZM202.761 119.836L202.869 117.946C202.599 117.838 202.203 117.784 201.861 117.784C200.763 117.784 199.575 118.576 199.089 119.656V117.928H197.127V127H199.089V123.616C199.089 120.808 200.259 119.62 201.591 119.62C202.005 119.62 202.437 119.692 202.761 119.836ZM207.764 127.144C208.97 127.144 210.068 126.604 210.5 125.848V127H212.462V114.256H210.5V119.062C209.96 118.306 208.898 117.784 207.728 117.784C204.992 117.784 203.426 119.728 203.426 122.464C203.426 125.2 204.992 127.144 207.764 127.144ZM208.016 125.434C206.432 125.434 205.388 124.246 205.388 122.464C205.388 120.664 206.432 119.494 208.016 119.494C209.6 119.494 210.644 120.664 210.644 122.464C210.644 124.246 209.6 125.434 208.016 125.434ZM223.181 122.122C223.181 119.908 221.633 117.784 218.717 117.784C215.837 117.784 214.289 120.016 214.289 122.464C214.289 124.912 215.927 127.144 218.807 127.144C220.931 127.144 222.479 126.136 222.965 124.39L221.111 123.922C220.877 124.912 220.031 125.47 218.843 125.47C217.403 125.47 216.395 124.498 216.215 122.932H223.145C223.163 122.77 223.181 122.392 223.181 122.122ZM216.305 121.438C216.593 120.088 217.475 119.332 218.717 119.332C220.157 119.332 220.967 120.214 221.093 121.438H216.305ZM230.64 119.836L230.748 117.946C230.478 117.838 230.082 117.784 229.74 117.784C228.642 117.784 227.454 118.576 226.968 119.656V117.928H225.006V127H226.968V123.616C226.968 120.808 228.138 119.62 229.47 119.62C229.884 119.62 230.316 119.692 230.64 119.836ZM242.19 127.144C245.016 127.144 247.032 125.632 247.644 123.202L245.538 122.752C245.142 124.336 243.954 125.29 242.19 125.29C239.868 125.29 238.14 123.688 238.14 120.7C238.14 117.712 239.886 116.092 242.19 116.092C243.936 116.092 245.214 117.118 245.574 118.81L247.662 118.36C247.212 115.858 245.106 114.256 242.19 114.256C238.968 114.256 235.998 116.398 235.998 120.7C235.998 125.002 238.932 127.144 242.19 127.144ZM253.668 127.144C256.386 127.144 258.348 125.182 258.348 122.464C258.348 119.746 256.386 117.784 253.668 117.784C250.932 117.784 248.988 119.746 248.988 122.464C248.988 125.182 250.932 127.144 253.668 127.144ZM253.668 125.434C252.048 125.434 250.968 124.21 250.968 122.464C250.968 120.718 252.048 119.494 253.668 119.494C255.27 119.494 256.368 120.718 256.368 122.464C256.368 124.21 255.27 125.434 253.668 125.434ZM260.162 127H262.124V122.41C262.124 120.682 262.898 119.476 264.248 119.476C265.4 119.476 266.03 120.232 266.03 121.366V127H267.974V122.41C267.974 120.664 268.748 119.476 270.098 119.476C271.25 119.476 271.898 120.232 271.898 121.366V127H273.86V120.88C273.86 119.044 272.6 117.784 270.656 117.784C269.234 117.784 268.154 118.594 267.668 119.584C267.29 118.414 266.246 117.784 264.788 117.784C263.474 117.784 262.61 118.468 262.124 119.458V117.928H260.162V127ZM276.158 130.276H278.12V125.956C278.678 126.676 279.74 127.144 280.838 127.144C283.556 127.144 285.212 125.2 285.212 122.464C285.212 119.728 283.628 117.784 280.946 117.784C279.686 117.784 278.624 118.342 278.12 119.08V117.928H276.158V130.276ZM280.622 125.434C279.038 125.434 277.994 124.246 277.994 122.464C277.994 120.664 279.038 119.494 280.622 119.494C282.206 119.494 283.25 120.664 283.25 122.464C283.25 124.246 282.206 125.434 280.622 125.434ZM287.021 127H288.983V114.256H287.021V127ZM299.716 122.122C299.716 119.908 298.168 117.784 295.252 117.784C292.372 117.784 290.824 120.016 290.824 122.464C290.824 124.912 292.462 127.144 295.342 127.144C297.466 127.144 299.014 126.136 299.5 124.39L297.646 123.922C297.412 124.912 296.566 125.47 295.378 125.47C293.938 125.47 292.93 124.498 292.75 122.932H299.68C299.698 122.77 299.716 122.392 299.716 122.122ZM292.84 121.438C293.128 120.088 294.01 119.332 295.252 119.332C296.692 119.332 297.502 120.214 297.628 121.438H292.84ZM306.548 126.928L306.422 125.182C306.08 125.344 305.666 125.398 305.324 125.398C304.586 125.398 304.082 124.93 304.082 124.03V119.602H306.422V117.928H304.082V115.228H302.12V117.928H300.536V119.602H302.12V124.138C302.12 126.208 303.398 127.144 305.108 127.144C305.612 127.144 306.116 127.072 306.548 126.928ZM316.415 122.122C316.415 119.908 314.867 117.784 311.951 117.784C309.071 117.784 307.523 120.016 307.523 122.464C307.523 124.912 309.161 127.144 312.041 127.144C314.165 127.144 315.713 126.136 316.199 124.39L314.345 123.922C314.111 124.912 313.265 125.47 312.077 125.47C310.637 125.47 309.629 124.498 309.449 122.932H316.379C316.397 122.77 316.415 122.392 316.415 122.122ZM309.539 121.438C309.827 120.088 310.709 119.332 311.951 119.332C313.391 119.332 314.201 120.214 314.327 121.438H309.539ZM322.092 127.144C323.298 127.144 324.396 126.604 324.828 125.848V127H326.79V114.256H324.828V119.062C324.288 118.306 323.226 117.784 322.056 117.784C319.32 117.784 317.754 119.728 317.754 122.464C317.754 125.2 319.32 127.144 322.092 127.144ZM322.344 125.434C320.76 125.434 319.716 124.246 319.716 122.464C319.716 120.664 320.76 119.494 322.344 119.494C323.928 119.494 324.972 120.664 324.972 122.464C324.972 124.246 323.928 125.434 322.344 125.434Z" fill="black"/>
<path d="M188.804 157.144C190.73 157.144 192.458 156.244 193.07 154.822V157H194.15V150.628H188.246V151.744H192.998C192.98 154.264 191.378 156.028 188.786 156.028C186.05 156.028 184.07 154.156 184.07 150.7C184.07 147.244 186.05 145.372 188.786 145.372C190.946 145.372 192.44 146.488 192.818 148.378L194.006 148.108C193.502 145.768 191.45 144.256 188.786 144.256C185.708 144.256 182.792 146.398 182.792 150.7C182.792 155.002 185.708 157.144 188.804 157.144ZM199.915 147.784C198.025 147.784 196.585 148.972 196.315 150.754L197.413 150.97C197.575 149.638 198.529 148.828 199.915 148.828C201.373 148.828 202.363 149.692 202.363 151.06V151.312L200.545 151.492C197.539 151.798 196.081 152.734 196.081 154.48C196.081 156.064 197.323 157.144 199.159 157.144C200.581 157.144 201.823 156.442 202.363 155.344V157H203.497V151.024C203.497 149.098 202.021 147.784 199.915 147.784ZM199.249 156.1C198.097 156.1 197.269 155.452 197.269 154.48C197.269 153.364 198.385 152.68 200.581 152.446L202.363 152.266V152.806C202.363 154.894 201.211 156.1 199.249 156.1ZM209.118 157.144C211.062 157.144 212.358 156.1 212.358 154.516C212.376 150.736 206.994 152.248 206.994 150.124C206.994 149.278 207.714 148.828 208.902 148.828C210 148.828 210.954 149.494 211.206 150.466L212.196 150.016C211.836 148.684 210.486 147.784 208.974 147.784C207.066 147.784 205.824 148.684 205.824 150.124C205.824 153.562 211.188 151.87 211.188 154.516C211.188 155.344 210.36 156.1 209.118 156.1C207.552 156.1 206.832 155.182 206.436 154.03L205.428 154.534C205.788 155.776 206.904 157.144 209.118 157.144ZM222.692 157.144C224.132 157.144 225.446 156.424 225.842 155.542V157H226.976V144.256H225.842V149.386C225.248 148.45 223.934 147.784 222.692 147.784C219.812 147.784 218.282 149.872 218.282 152.464C218.282 155.056 219.812 157.144 222.692 157.144ZM222.728 156.1C220.766 156.1 219.488 154.66 219.488 152.464C219.488 150.268 220.766 148.828 222.728 148.828C224.69 148.828 225.968 150.268 225.968 152.464C225.968 154.66 224.69 156.1 222.728 156.1ZM237.625 151.978C237.625 149.53 235.879 147.784 233.395 147.784C230.821 147.784 229.057 149.764 229.057 152.464C229.057 155.164 230.821 157.144 233.395 157.144C235.465 157.144 236.941 156.118 237.355 154.318L236.275 154.102C236.005 155.38 234.925 156.1 233.377 156.1C231.541 156.1 230.227 154.678 230.209 152.572H237.589C237.607 152.446 237.625 152.14 237.625 151.978ZM230.299 151.528C230.623 149.854 231.793 148.828 233.395 148.828C235.177 148.828 236.275 149.962 236.455 151.528H230.299ZM239.705 157H240.839V144.256H239.705V157ZM243.34 144.256V145.984H244.744V144.256H243.34ZM243.466 157H244.6V147.928H243.466V157ZM249.514 157H250.792L254.122 147.928H252.916L250.144 155.686L247.372 147.928H246.184L249.514 157ZM263.465 151.978C263.465 149.53 261.719 147.784 259.235 147.784C256.661 147.784 254.897 149.764 254.897 152.464C254.897 155.164 256.661 157.144 259.235 157.144C261.305 157.144 262.781 156.118 263.195 154.318L262.115 154.102C261.845 155.38 260.765 156.1 259.217 156.1C257.381 156.1 256.067 154.678 256.049 152.572H263.429C263.447 152.446 263.465 152.14 263.465 151.978ZM256.139 151.528C256.463 149.854 257.633 148.828 259.235 148.828C261.017 148.828 262.115 149.962 262.295 151.528H256.139ZM270.566 149.044L270.638 147.946C270.314 147.838 269.954 147.784 269.558 147.784C268.442 147.784 267.236 148.648 266.678 149.854V147.928H265.544V157H266.678V153.49C266.678 150.394 267.866 148.828 269.378 148.828C269.792 148.828 270.206 148.9 270.566 149.044ZM279.795 151.978C279.795 149.53 278.049 147.784 275.565 147.784C272.991 147.784 271.227 149.764 271.227 152.464C271.227 155.164 272.991 157.144 275.565 157.144C277.635 157.144 279.111 156.118 279.525 154.318L278.445 154.102C278.175 155.38 277.095 156.1 275.547 156.1C273.711 156.1 272.397 154.678 272.379 152.572H279.759C279.777 152.446 279.795 152.14 279.795 151.978ZM272.469 151.528C272.793 149.854 273.963 148.828 275.565 148.828C277.347 148.828 278.445 149.962 278.625 151.528H272.469ZM285.745 157.144C287.185 157.144 288.499 156.424 288.895 155.542V157H290.029V144.256H288.895V149.386C288.301 148.45 286.987 147.784 285.745 147.784C282.865 147.784 281.335 149.872 281.335 152.464C281.335 155.056 282.865 157.144 285.745 157.144ZM285.781 156.1C283.819 156.1 282.541 154.66 282.541 152.464C282.541 150.268 283.819 148.828 285.781 148.828C287.743 148.828 289.021 150.268 289.021 152.464C289.021 154.66 287.743 156.1 285.781 156.1ZM299.997 157.144C301.941 157.144 303.237 156.1 303.237 154.516C303.255 150.736 297.873 152.248 297.873 150.124C297.873 149.278 298.593 148.828 299.781 148.828C300.879 148.828 301.833 149.494 302.085 150.466L303.075 150.016C302.715 148.684 301.365 147.784 299.853 147.784C297.945 147.784 296.703 148.684 296.703 150.124C296.703 153.562 302.067 151.87 302.067 154.516C302.067 155.344 301.239 156.1 299.997 156.1C298.431 156.1 297.711 155.182 297.315 154.03L296.307 154.534C296.667 155.776 297.783 157.144 299.997 157.144ZM312.919 147.928H311.785V151.906C311.785 154.48 310.543 156.1 308.707 156.1C307.303 156.1 306.475 155.146 306.475 153.832V147.928H305.341V153.976C305.341 155.884 306.691 157.144 308.545 157.144C309.985 157.144 311.119 156.298 311.785 155.11V157H312.919V147.928ZM319.46 157.144C321.44 157.144 322.898 156.082 323.312 154.21L322.196 153.994C321.926 155.344 320.882 156.1 319.46 156.1C317.48 156.1 316.202 154.66 316.202 152.464C316.202 150.268 317.48 148.828 319.46 148.828C320.882 148.828 321.926 149.692 322.16 150.862L323.276 150.628C322.934 148.918 321.44 147.784 319.46 147.784C316.76 147.784 315.014 149.638 315.014 152.464C315.014 155.29 316.76 157.144 319.46 157.144ZM329.216 157.144C331.196 157.144 332.654 156.082 333.068 154.21L331.952 153.994C331.682 155.344 330.638 156.1 329.216 156.1C327.236 156.1 325.958 154.66 325.958 152.464C325.958 150.268 327.236 148.828 329.216 148.828C330.638 148.828 331.682 149.692 331.916 150.862L333.032 150.628C332.69 148.918 331.196 147.784 329.216 147.784C326.516 147.784 324.77 149.638 324.77 152.464C324.77 155.29 326.516 157.144 329.216 157.144ZM343.094 151.978C343.094 149.53 341.348 147.784 338.864 147.784C336.29 147.784 334.526 149.764 334.526 152.464C334.526 155.164 336.29 157.144 338.864 157.144C340.934 157.144 342.41 156.118 342.824 154.318L341.744 154.102C341.474 155.38 340.394 156.1 338.846 156.1C337.01 156.1 335.696 154.678 335.678 152.572H343.058C343.076 152.446 343.094 152.14 343.094 151.978ZM335.768 151.528C336.092 149.854 337.262 148.828 338.864 148.828C340.646 148.828 341.744 149.962 341.924 151.528H335.768ZM348.073 157.144C350.017 157.144 351.313 156.1 351.313 154.516C351.331 150.736 345.949 152.248 345.949 150.124C345.949 149.278 346.669 148.828 347.857 148.828C348.955 148.828 349.909 149.494 350.161 150.466L351.151 150.016C350.791 148.684 349.441 147.784 347.929 147.784C346.021 147.784 344.779 148.684 344.779 150.124C344.779 153.562 350.143 151.87 350.143 154.516C350.143 155.344 349.315 156.1 348.073 156.1C346.507 156.1 345.787 155.182 345.391 154.03L344.383 154.534C344.743 155.776 345.859 157.144 348.073 157.144ZM356.406 157.144C358.35 157.144 359.646 156.1 359.646 154.516C359.664 150.736 354.282 152.248 354.282 150.124C354.282 149.278 355.002 148.828 356.19 148.828C357.288 148.828 358.242 149.494 358.494 150.466L359.484 150.016C359.124 148.684 357.774 147.784 356.262 147.784C354.354 147.784 353.112 148.684 353.112 150.124C353.112 153.562 358.476 151.87 358.476 154.516C358.476 155.344 357.648 156.1 356.406 156.1C354.84 156.1 354.12 155.182 353.724 154.03L352.716 154.534C353.076 155.776 354.192 157.144 356.406 157.144ZM362.528 157H363.662V148.972H366.074V147.928H363.662V146.812C363.662 145.786 364.238 145.102 365.084 145.102C365.39 145.102 365.732 145.138 366.056 145.264L366.092 144.184C365.732 144.094 365.318 144.058 364.94 144.058C363.536 144.058 362.528 145.084 362.528 146.992V147.928H360.944V148.972H362.528V157ZM375.427 147.928H374.293V151.906C374.293 154.48 373.051 156.1 371.215 156.1C369.811 156.1 368.983 155.146 368.983 153.832V147.928H367.849V153.976C367.849 155.884 369.199 157.144 371.053 157.144C372.493 157.144 373.627 156.298 374.293 155.11V157H375.427V147.928ZM378.062 157H379.196V144.256H378.062V157ZM381.824 157H382.958V144.256H381.824V157ZM391.597 147.928L388.699 155.47L385.765 147.928H384.541L388.105 157L386.845 160.276H387.997L392.749 147.928H391.597Z" fill="#4B5262"/>
</g>
<defs>
<filter id="filter0_d_130_679" x="0" y="0" width="518" height="300" filterUnits="userSpaceOnUse" color-interpolation-filters="sRGB">
<feFlood flood-opacity="0" result="BackgroundImageFix"/>
<feColorMatrix in="SourceAlpha" type="matrix" values="0 0 0 0 0 0 0 0 0 0 0 0 0 0 0 0 0 0 127 0" result="hardAlpha"/>
<feOffset dy="14"/>
<feGaussianBlur stdDeviation="52"/>
<feComposite in2="hardAlpha" operator="out"/>
<feColorMatrix type="matrix" values="0 0 0 0 0 0 0 0 0 0 0 0 0 0 0 0 0 0 0.14 0"/>
<feBlend mode="normal" in2="BackgroundImageFix" result="effect1_dropShadow_130_679"/>
<feBlend mode="normal" in="SourceGraphic" in2="effect1_dropShadow_130_679" result="shape"/>
</filter>
<clipPath id="clip0_130_679">
<rect width="18.4114" height="22.25" fill="white" transform="translate(138 125)"/>
</clipPath>
</defs>
</svg>
