<svg width="15" height="13" viewBox="0 0 15 13" fill="none" xmlns="http://www.w3.org/2000/svg">
<path d="M5.99373 7.125C6.33748 7.125 6.61873 7.40625 6.61873 7.75C6.61873 8.09375 6.33748 8.375 5.99373 8.375C5.64998 8.375 5.36873 8.09375 5.36873 7.75C5.36873 7.40625 5.64998 7.125 5.99373 7.125ZM5.99373 5.875C4.95623 5.875 4.11873 6.7125 4.11873 7.75C4.11873 8.7875 4.95623 9.625 5.99373 9.625C7.03123 9.625 7.86873 8.7875 7.86873 7.75C7.86873 6.7125 7.03123 5.875 5.99373 5.875ZM11.3062 4.625L11.9875 3.11875L13.4937 2.4375L11.9875 1.75625L11.3062 0.25L10.625 1.75625L9.11873 2.4375L10.625 3.11875L11.3062 4.625ZM13.0437 6.95L12.5562 5.875L12.0687 6.95L10.9937 7.4375L12.0687 7.925L12.5562 9L13.0437 7.925L14.1187 7.4375L13.0437 6.95ZM9.89998 7.75C9.89998 7.675 9.89998 7.59375 9.89373 7.51875L11.1062 6.6L9.54373 3.89375L8.14373 4.48125C8.01873 4.4 7.88123 4.31875 7.74373 4.25L7.55623 2.75H4.43123L4.24373 4.25625C4.10623 4.325 3.97498 4.40625 3.84373 4.4875L2.44373 3.89375L0.881226 6.6L2.09373 7.51875C2.08748 7.59375 2.08748 7.675 2.08748 7.75C2.08748 7.825 2.08748 7.90625 2.09373 7.98125L0.881226 8.9L2.44373 11.6062L3.84373 11.0187C3.96873 11.1 4.10623 11.1812 4.24373 11.25L4.43123 12.75H7.55623L7.74373 11.2437C7.88123 11.175 8.01248 11.1 8.14373 11.0125L9.54373 11.6L11.1062 8.89375L9.89373 7.975C9.89998 7.90625 9.89998 7.825 9.89998 7.75ZM9.01248 10.025L7.93123 9.56875C7.58123 9.94375 7.11873 10.2187 6.59998 10.3375L6.44998 11.5H5.53748L5.39373 10.3375C4.87498 10.2187 4.41248 9.94375 4.06248 9.56875L2.98123 10.025L2.52498 9.23125L3.45623 8.525C3.38123 8.28125 3.34373 8.025 3.34373 7.75625C3.34373 7.4875 3.38123 7.23125 3.45623 6.9875L2.52498 6.28125L2.98123 5.4875L4.06248 5.94375C4.41248 5.56875 4.87498 5.29375 5.39373 5.175L5.53748 4H6.45623L6.59998 5.1625C7.11873 5.28125 7.58123 5.55625 7.93123 5.93125L9.01248 5.475L9.46873 6.26875L8.53748 6.975C8.61248 7.21875 8.64998 7.475 8.64998 7.74375C8.64998 8.0125 8.61248 8.26875 8.53748 8.5125L9.46873 9.21875L9.01248 10.025Z" fill="black"/>
</svg>
