<svg width="86" height="80" viewBox="0 0 86 80" fill="none" xmlns="http://www.w3.org/2000/svg">
<rect x="4.70872" y="4.70872" width="70.5826" height="70.5826" rx="27.5796" fill="#A5B4CB" fill-opacity="0.41" stroke="white" stroke-width="9.41744"/>
<path fill-rule="evenodd" clip-rule="evenodd" d="M40.8438 52.2649C35.6006 52.2649 31.123 51.4489 31.123 48.1813C31.123 44.9137 35.5722 41.8972 40.8438 41.8972C46.0871 41.8972 50.5646 44.8845 50.5646 48.1521C50.5646 51.4184 46.1155 52.2649 40.8438 52.2649Z" stroke="white" stroke-width="2.01802" stroke-linecap="round" stroke-linejoin="round"/>
<path fill-rule="evenodd" clip-rule="evenodd" d="M40.8326 37.3692C44.2734 37.3692 47.0622 34.5804 47.0622 31.1396C47.0622 27.6988 44.2734 24.9087 40.8326 24.9087C37.3917 24.9087 34.6016 27.6988 34.6016 31.1396C34.59 34.5688 37.3595 37.3576 40.7887 37.3692C40.8041 37.3692 40.8183 37.3692 40.8326 37.3692Z" stroke="white" stroke-width="2.01802" stroke-linecap="round" stroke-linejoin="round"/>
<rect x="60.8301" y="4.63086" width="24.2163" height="24.2163" rx="10.7628" fill="#FD671E"/>
<path d="M77.4174 20.6366C77.7297 20.6366 77.9837 20.8939 77.9837 21.2103C77.9837 21.5273 77.7297 21.784 77.4174 21.784H74.2165C73.9042 21.784 73.6502 21.5273 73.6502 21.2103C73.6502 20.8939 73.9042 20.6366 74.2165 20.6366H77.4174ZM75.1976 12.0857L76.0244 12.7425C76.3635 13.0077 76.5895 13.3572 76.6669 13.7248C76.7561 14.1291 76.6609 14.5262 76.3932 14.8697L71.4679 21.239C71.2419 21.5283 70.9088 21.691 70.5519 21.697L68.5889 21.7211C68.4818 21.7211 68.3926 21.6488 68.3688 21.5464L67.9226 19.6121C67.8453 19.2565 67.9226 18.8889 68.1487 18.6057L71.6404 14.0863C71.6999 14.014 71.807 14.0026 71.8784 14.0562L73.3476 15.2252C73.4428 15.3035 73.5737 15.3457 73.7105 15.3276C74.002 15.2915 74.1983 15.0263 74.1685 14.7431C74.1507 14.5985 74.0793 14.478 73.9841 14.3876C73.9544 14.3635 72.5565 13.2427 72.5565 13.2427C72.4673 13.1704 72.4494 13.0378 72.5208 12.948L73.074 12.2303C73.5856 11.5735 74.4778 11.5133 75.1976 12.0857Z" fill="white"/>
</svg>
