<svg width="14" height="15" viewBox="0 0 14 15" fill="none" xmlns="http://www.w3.org/2000/svg">
<path d="M6.66634 3.46517C6.66634 2.72879 6.06939 2.13184 5.33301 2.13184C4.59663 2.13184 3.99967 2.72879 3.99967 3.46517C3.99967 4.20155 4.59663 4.7985 5.33301 4.7985C6.06939 4.7985 6.66634 4.20155 6.66634 3.46517Z" fill="#616469"/>
<path d="M11.4997 3.96517C11.7758 3.96517 11.9997 3.74131 11.9997 3.46517C11.9997 3.18903 11.7758 2.96517 11.4997 2.96517L7.83301 2.96517C7.55687 2.96517 7.33301 3.18903 7.33301 3.46517C7.33301 3.74131 7.55687 3.96517 7.83301 3.96517L11.4997 3.96517Z" fill="#616469"/>
<path d="M3.33301 3.46517C3.33301 3.74131 3.10915 3.96517 2.83301 3.96517H1.83301C1.55687 3.96517 1.33301 3.74131 1.33301 3.46517C1.33301 3.18903 1.55687 2.96517 1.83301 2.96517L2.83301 2.96517C3.10915 2.96517 3.33301 3.18903 3.33301 3.46517Z" fill="#616469"/>
<path d="M2.83301 12.2985C3.10915 12.2985 3.33301 12.0746 3.33301 11.7985C3.33301 11.5224 3.10915 11.2985 2.83301 11.2985H1.83301C1.55687 11.2985 1.33301 11.5224 1.33301 11.7985C1.33301 12.0746 1.55687 12.2985 1.83301 12.2985H2.83301Z" fill="#616469"/>
<path d="M11.4997 12.2985C11.7758 12.2985 11.9997 12.0746 11.9997 11.7985C11.9997 11.5224 11.7758 11.2985 11.4997 11.2985H7.83301C7.55687 11.2985 7.33301 11.5224 7.33301 11.7985C7.33301 12.0746 7.55687 12.2985 7.83301 12.2985H11.4997Z" fill="#616469"/>
<path d="M5.99967 7.63184C5.99967 7.90798 5.77582 8.13184 5.49967 8.13184H1.83301C1.55687 8.13184 1.33301 7.90798 1.33301 7.63184C1.33301 7.35569 1.55687 7.13184 1.83301 7.13184H5.49967C5.77582 7.13184 5.99967 7.35569 5.99967 7.63184Z" fill="#616469"/>
<path d="M11.4997 8.13184C11.7758 8.13184 11.9997 7.90798 11.9997 7.63184C11.9997 7.35569 11.7758 7.13184 11.4997 7.13184H10.4997C10.2235 7.13184 9.99968 7.35569 9.99968 7.63184C9.99968 7.90798 10.2235 8.13184 10.4997 8.13184H11.4997Z" fill="#616469"/>
<path d="M9.33301 7.63184C9.33301 6.89546 8.73605 6.2985 7.99968 6.2985C7.2633 6.2985 6.66634 6.89546 6.66634 7.63184C6.66634 8.36822 7.2633 8.96517 7.99968 8.96517C8.73605 8.96517 9.33301 8.36822 9.33301 7.63184Z" fill="#616469"/>
<path d="M6.66634 11.7985C6.66634 11.0621 6.06939 10.4652 5.33301 10.4652C4.59663 10.4652 3.99967 11.0621 3.99967 11.7985C3.99967 12.5349 4.59663 13.1318 5.33301 13.1318C6.06939 13.1318 6.66634 12.5349 6.66634 11.7985Z" fill="#616469"/>
</svg>
