<svg width="21" height="21" viewBox="0 0 21 21" fill="none" xmlns="http://www.w3.org/2000/svg">
<path fill-rule="evenodd" clip-rule="evenodd" d="M4.5 2.63184C3.25736 2.63184 2.25 3.6392 2.25 4.88184V16.3818C2.25 17.6245 3.25736 18.6318 4.5 18.6318H16C17.2426 18.6318 18.25 17.6245 18.25 16.3818V4.88184C18.25 3.6392 17.2426 2.63184 16 2.63184H4.5ZM15.25 6.38184C15.25 5.96762 14.9142 5.63184 14.5 5.63184C14.0858 5.63184 13.75 5.96762 13.75 6.38184V14.8818C13.75 15.296 14.0858 15.6318 14.5 15.6318C14.9142 15.6318 15.25 15.296 15.25 14.8818V6.38184ZM6.75 12.3818C6.75 11.9676 6.41421 11.6318 6 11.6318C5.58579 11.6318 5.25 11.9676 5.25 12.3818V14.8818C5.25 15.296 5.58579 15.6318 6 15.6318C6.41421 15.6318 6.75 15.296 6.75 14.8818V12.3818ZM8.8335 9.63184C9.24771 9.63184 9.5835 9.96762 9.5835 10.3818V14.8818C9.5835 15.296 9.24771 15.6318 8.8335 15.6318C8.41928 15.6318 8.0835 15.296 8.0835 14.8818V10.3818C8.0835 9.96762 8.41928 9.63184 8.8335 9.63184ZM12.4136 8.38184C12.4136 7.96762 12.0778 7.63184 11.6636 7.63184C11.2494 7.63184 10.9136 7.96762 10.9136 8.38184V14.8818C10.9136 15.296 11.2494 15.6318 11.6636 15.6318C12.0778 15.6318 12.4136 15.296 12.4136 14.8818V8.38184Z" fill="#616469"/>
</svg>
