<svg width="20" height="21" viewBox="0 0 20 21" fill="none" xmlns="http://www.w3.org/2000/svg">
<path d="M1 2.38184C1 1.96762 1.33579 1.63184 1.75 1.63184H3.37846C4.25256 1.63184 4.99261 2.27682 5.11205 3.14272L5.17955 3.63208C9.75911 3.64446 14.2281 4.13056 18.5398 5.0442C18.9395 5.1289 19.1979 5.51797 19.1209 5.91923C18.7145 8.03731 18.1717 10.107 17.502 12.1187C17.4 12.4251 17.1134 12.6318 16.7904 12.6318H6C5.88567 12.6318 5.77351 12.6395 5.66393 12.6541C4.78545 12.7718 4.05092 13.3471 3.70796 14.1318H17.25C17.6642 14.1318 18 14.4676 18 14.8818C18 15.296 17.6642 15.6318 17.25 15.6318H2.75948C2.55068 15.6318 2.35133 15.5448 2.2094 15.3917C2.06747 15.2385 1.9958 15.0331 2.01164 14.8249C2.13566 13.1946 3.23526 11.8387 4.72829 11.3384L3.62612 3.34768C3.60906 3.22397 3.50333 3.13184 3.37846 3.13184H1.75C1.33579 3.13184 1 2.79605 1 2.38184Z" fill="#616469"/>
<path d="M6 18.1318C6 18.9603 5.32843 19.6318 4.5 19.6318C3.67157 19.6318 3 18.9603 3 18.1318C3 17.3034 3.67157 16.6318 4.5 16.6318C5.32843 16.6318 6 17.3034 6 18.1318Z" fill="#616469"/>
<path d="M15.5 19.6318C16.3284 19.6318 17 18.9603 17 18.1318C17 17.3034 16.3284 16.6318 15.5 16.6318C14.6716 16.6318 14 17.3034 14 18.1318C14 18.9603 14.6716 19.6318 15.5 19.6318Z" fill="#616469"/>
</svg>
