<svg width="21" height="21" viewBox="0 0 21 21" fill="none" xmlns="http://www.w3.org/2000/svg">
<path d="M12.7334 2.53902C12.8046 2.20644 12.6432 1.86755 12.34 1.71336C12.0368 1.55917 11.6679 1.6283 11.4411 1.88177L2.94108 11.3818C2.74385 11.6022 2.6946 11.918 2.81533 12.188C2.93607 12.458 3.20423 12.6319 3.50001 12.6319H10.0723L8.76666 18.7247C8.6954 19.0573 8.85685 19.3962 9.16002 19.5504C9.46318 19.7046 9.83215 19.6354 10.0589 19.382L18.5589 9.88196C18.7562 9.66153 18.8054 9.34577 18.6847 9.07574C18.564 8.80572 18.2958 8.63187 18 8.63187H11.4278L12.7334 2.53902Z" fill="#616469"/>
</svg>
