<svg width="21" height="21" viewBox="0 0 21 21" fill="none" xmlns="http://www.w3.org/2000/svg">
<path d="M10.5 9.63184C12.1569 9.63184 13.5 8.28869 13.5 6.63184C13.5 4.97498 12.1569 3.63184 10.5 3.63184C8.84315 3.63184 7.5 4.97498 7.5 6.63184C7.5 8.28869 8.84315 9.63184 10.5 9.63184Z" fill="#616469"/>
<path d="M6.5 8.63184C6.5 9.73641 5.60457 10.6318 4.5 10.6318C3.39543 10.6318 2.5 9.73641 2.5 8.63184C2.5 7.52727 3.39543 6.63184 4.5 6.63184C5.60457 6.63184 6.5 7.52727 6.5 8.63184Z" fill="#616469"/>
<path d="M1.99064 15.9575C1.82107 15.8589 1.69021 15.7036 1.63247 15.5162C1.54636 15.2366 1.5 14.9396 1.5 14.6318C1.5 12.975 2.84315 11.6318 4.5 11.6318C5.022 11.6318 5.51287 11.7652 5.9404 11.9996C4.89329 13.0307 4.19414 14.4144 4.03478 15.9585C4.0118 16.1812 4.02139 16.401 4.05996 16.6127C3.31061 16.5474 2.60861 16.3168 1.99064 15.9575Z" fill="#616469"/>
<path d="M16.9405 16.6127C17.6897 16.5473 18.3915 16.3167 19.0094 15.9575C19.1789 15.8589 19.3098 15.7036 19.3675 15.5162C19.4536 15.2366 19.5 14.9396 19.5 14.6318C19.5 12.975 18.1569 11.6318 16.5 11.6318C15.9781 11.6318 15.4873 11.7651 15.0599 11.9995C16.1071 13.0306 16.8063 14.4143 16.9656 15.9586C16.9886 16.1812 16.979 16.401 16.9405 16.6127Z" fill="#616469"/>
<path d="M18.5 8.63184C18.5 9.73641 17.6046 10.6318 16.5 10.6318C15.3954 10.6318 14.5 9.73641 14.5 8.63184C14.5 7.52727 15.3954 6.63184 16.5 6.63184C17.6046 6.63184 18.5 7.52727 18.5 8.63184Z" fill="#616469"/>
<path d="M5.80383 16.8227C5.60473 16.6425 5.49922 16.3797 5.52679 16.1125C5.78657 13.5951 7.91408 11.6318 10.5001 11.6318C13.0862 11.6318 15.2137 13.5951 15.4735 16.1125C15.5011 16.3797 15.3956 16.6425 15.1965 16.8227C13.9545 17.947 12.3073 18.6318 10.5001 18.6318C8.69298 18.6318 7.04576 17.947 5.80383 16.8227Z" fill="#616469"/>
</svg>
